<svg xmlns="http://www.w3.org/2000/svg" xmlns:xlink="http://www.w3.org/1999/xlink" version="1.1" width="100" height="100" viewBox="0 0 256 256" xml:space="preserve">

<defs>
</defs>
<g style="stroke: none; stroke-width: 0; stroke-dasharray: none; stroke-linecap: butt; stroke-linejoin: miter; stroke-miterlimit: 10; fill: none; fill-rule: nonzero; opacity: 1;" transform="translate(1.4065934065934016 1.4065934065934016) scale(2.81 2.81)" >
	<path d="M 89 46 H 78.147 c -0.553 0 -1 -0.448 -1 -1 s 0.447 -1 1 -1 H 89 c 0.553 0 1 0.448 1 1 S 89.553 46 89 46 z" style="stroke: none; stroke-width: 1; stroke-dasharray: none; stroke-linecap: butt; stroke-linejoin: miter; stroke-miterlimit: 10; fill: rgb(0,0,0); fill-rule: nonzero; opacity: 1;" transform=" matrix(1 0 0 1 0 0) " stroke-linecap="round" />
	<path d="M 11.852 46 H 1 c -0.552 0 -1 -0.448 -1 -1 s 0.448 -1 1 -1 h 10.852 c 0.552 0 1 0.448 1 1 S 12.404 46 11.852 46 z" style="stroke: none; stroke-width: 1; stroke-dasharray: none; stroke-linecap: butt; stroke-linejoin: miter; stroke-miterlimit: 10; fill: rgb(0,0,0); fill-rule: nonzero; opacity: 1;" transform=" matrix(1 0 0 1 0 0) " stroke-linecap="round" />
	<path d="M 45 12.852 c -0.552 0 -1 -0.448 -1 -1 V 1 c 0 -0.552 0.448 -1 1 -1 s 1 0.448 1 1 v 10.852 C 46 12.404 45.552 12.852 45 12.852 z" style="stroke: none; stroke-width: 1; stroke-dasharray: none; stroke-linecap: butt; stroke-linejoin: miter; stroke-miterlimit: 10; fill: rgb(0,0,0); fill-rule: nonzero; opacity: 1;" transform=" matrix(1 0 0 1 0 0) " stroke-linecap="round" />
	<path d="M 68.439 22.561 c -0.256 0 -0.512 -0.098 -0.707 -0.293 c -0.391 -0.39 -0.391 -1.023 0 -1.414 l 7.673 -7.674 c 0.391 -0.391 1.023 -0.391 1.414 0 c 0.391 0.39 0.391 1.023 0 1.414 l -7.673 7.674 C 68.951 22.463 68.695 22.561 68.439 22.561 z" style="stroke: none; stroke-width: 1; stroke-dasharray: none; stroke-linecap: butt; stroke-linejoin: miter; stroke-miterlimit: 10; fill: rgb(0,0,0); fill-rule: nonzero; opacity: 1;" transform=" matrix(1 0 0 1 0 0) " stroke-linecap="round" />
	<path d="M 21.561 22.561 c -0.256 0 -0.512 -0.098 -0.707 -0.293 l -7.674 -7.674 c -0.391 -0.391 -0.391 -1.023 0 -1.414 s 1.023 -0.391 1.414 0 l 7.674 7.674 c 0.391 0.391 0.391 1.023 0 1.414 C 22.073 22.463 21.817 22.561 21.561 22.561 z" style="stroke: none; stroke-width: 1; stroke-dasharray: none; stroke-linecap: butt; stroke-linejoin: miter; stroke-miterlimit: 10; fill: rgb(0,0,0); fill-rule: nonzero; opacity: 1;" transform=" matrix(1 0 0 1 0 0) " stroke-linecap="round" />
	<path d="M 68.039 45 c 0 12.724 -10.315 23.039 -23.039 23.039 S 21.961 57.724 21.961 45 S 32.276 21.961 45 21.961 S 68.039 32.276 68.039 45" style="stroke: none; stroke-width: 1; stroke-dasharray: none; stroke-linecap: butt; stroke-linejoin: miter; stroke-miterlimit: 10; fill: rgb(253,182,47); fill-rule: nonzero; opacity: 1;" transform=" matrix(1 0 0 1 0 0) " stroke-linecap="round" />
	<path d="M 45 69.039 c -13.255 0 -24.04 -10.784 -24.04 -24.039 c 0 -13.255 10.784 -24.04 24.04 -24.04 c 13.255 0 24.039 10.784 24.039 24.04 C 69.039 58.255 58.255 69.039 45 69.039 z M 45 22.96 c -12.153 0 -22.04 9.887 -22.04 22.04 c 0 12.152 9.887 22.039 22.04 22.039 c 12.152 0 22.039 -9.887 22.039 -22.039 C 67.039 32.847 57.152 22.96 45 22.96 z" style="stroke: none; stroke-width: 1; stroke-dasharray: none; stroke-linecap: butt; stroke-linejoin: miter; stroke-miterlimit: 10; fill: rgb(0,0,0); fill-rule: nonzero; opacity: 1;" transform=" matrix(1 0 0 1 0 0) " stroke-linecap="round" />
	<path d="M 45 90 c -0.552 0 -1 -0.447 -1 -1 V 78.147 c 0 -0.553 0.448 -1 1 -1 s 1 0.447 1 1 V 89 C 46 89.553 45.552 90 45 90 z" style="stroke: none; stroke-width: 1; stroke-dasharray: none; stroke-linecap: butt; stroke-linejoin: miter; stroke-miterlimit: 10; fill: rgb(0,0,0); fill-rule: nonzero; opacity: 1;" transform=" matrix(1 0 0 1 0 0) " stroke-linecap="round" />
	<path d="M 76.112 77.112 c -0.256 0 -0.512 -0.098 -0.707 -0.293 l -7.673 -7.673 c -0.391 -0.391 -0.391 -1.023 0 -1.414 s 1.023 -0.391 1.414 0 l 7.673 7.673 c 0.391 0.391 0.391 1.023 0 1.414 C 76.624 77.015 76.368 77.112 76.112 77.112 z" style="stroke: none; stroke-width: 1; stroke-dasharray: none; stroke-linecap: butt; stroke-linejoin: miter; stroke-miterlimit: 10; fill: rgb(0,0,0); fill-rule: nonzero; opacity: 1;" transform=" matrix(1 0 0 1 0 0) " stroke-linecap="round" />
	<path d="M 13.887 77.112 c -0.256 0 -0.512 -0.098 -0.707 -0.293 c -0.391 -0.391 -0.391 -1.023 0 -1.414 l 7.674 -7.673 c 0.391 -0.391 1.023 -0.391 1.414 0 s 0.391 1.023 0 1.414 l -7.674 7.673 C 14.399 77.015 14.143 77.112 13.887 77.112 z" style="stroke: none; stroke-width: 1; stroke-dasharray: none; stroke-linecap: butt; stroke-linejoin: miter; stroke-miterlimit: 10; fill: rgb(0,0,0); fill-rule: nonzero; opacity: 1;" transform=" matrix(1 0 0 1 0 0) " stroke-linecap="round" />
	<path d="M 45 33.244 l -12.983 9.2 h 3.765 v 14.312 h 6.276 v -7.814 C 42.058 47.317 43.375 46 45 46 s 2.942 1.317 2.942 2.942 v 7.814 h 6.013 V 42.444 h 4.028 L 45 33.244 z" style="stroke: none; stroke-width: 1; stroke-dasharray: none; stroke-linecap: butt; stroke-linejoin: miter; stroke-miterlimit: 10; fill: rgb(67,152,209); fill-rule: nonzero; opacity: 1;" transform=" matrix(1 0 0 1 0 0) " stroke-linecap="round" />
	<path d="M 53.955 57.756 h -6.013 c -0.553 0 -1 -0.447 -1 -1 v -7.813 C 46.942 47.871 46.071 47 45 47 c -1.071 0 -1.942 0.871 -1.942 1.942 v 7.813 c 0 0.553 -0.448 1 -1 1 h -6.276 c -0.552 0 -1 -0.447 -1 -1 V 43.444 h -2.765 c -0.436 0 -0.821 -0.282 -0.953 -0.697 c -0.132 -0.415 0.019 -0.867 0.375 -1.119 l 12.983 -9.2 c 0.347 -0.245 0.81 -0.245 1.156 0 l 12.983 9.2 c 0.355 0.252 0.507 0.705 0.375 1.119 c -0.133 0.415 -0.518 0.697 -0.953 0.697 h -3.028 v 13.312 C 54.955 57.309 54.508 57.756 53.955 57.756 z M 48.942 55.756 h 4.013 V 42.444 c 0 -0.552 0.447 -1 1 -1 h 0.888 L 45 34.47 l -9.842 6.974 h 0.624 c 0.552 0 1 0.448 1 1 v 13.312 h 4.276 v -6.813 C 41.058 46.769 42.826 45 45 45 s 3.942 1.769 3.942 3.942 V 55.756 z" style="stroke: none; stroke-width: 1; stroke-dasharray: none; stroke-linecap: butt; stroke-linejoin: miter; stroke-miterlimit: 10; fill: rgb(0,0,0); fill-rule: nonzero; opacity: 1;" transform=" matrix(1 0 0 1 0 0) " stroke-linecap="round" />
</g>
</svg>
