<svg xmlns="http://www.w3.org/2000/svg" xmlns:xlink="http://www.w3.org/1999/xlink" version="1.1" width="55" height="55" viewBox="0 0 256 256" xml:space="preserve">

<defs>
</defs>
<g style="stroke: none; stroke-width: 0; stroke-dasharray: none; stroke-linecap: butt; stroke-linejoin: miter; stroke-miterlimit: 10; fill: none; fill-rule: nonzero; opacity: 1;" transform="translate(1.4065934065934016 1.4065934065934016) scale(2.81 2.81)" >
	<path d="M 71.034 31.86 c 0 -14.934 -12.575 -26.932 -27.715 -25.981 C 30.445 6.687 19.941 17.103 19.033 29.971 c -0.638 9.041 3.344 17.184 9.823 22.311 c 3.662 2.898 5.878 7.244 5.878 11.914 v 7.578 c 0 1.315 1.066 2.381 2.381 2.381 h 15.769 c 1.315 0 2.381 -1.066 2.381 -2.381 l 0 -7.58 c 0 -4.588 2.073 -8.954 5.696 -11.768 C 67.09 47.663 71.034 40.222 71.034 31.86 z" style="stroke: none; stroke-width: 1; stroke-dasharray: none; stroke-linecap: butt; stroke-linejoin: miter; stroke-miterlimit: 10; fill: rgb(255,225,129); fill-rule: nonzero; opacity: 1;" transform=" matrix(1 0 0 1 0 0) " stroke-linecap="round" />
	<path d="M 48.409 84.174 h -6.818 c -2.381 0 -4.311 -1.93 -4.311 -4.311 v -5.708 h 15.44 v 5.708 C 52.72 82.244 50.79 84.174 48.409 84.174 z" style="stroke: none; stroke-width: 1; stroke-dasharray: none; stroke-linecap: butt; stroke-linejoin: miter; stroke-miterlimit: 10; fill: rgb(226,223,226); fill-rule: nonzero; opacity: 1;" transform=" matrix(1 0 0 1 0 0) " stroke-linecap="round" />
	<path d="M 41.734 71.774 v -7.578 c 0 -4.67 -2.216 -9.016 -5.878 -11.914 c -6.479 -5.127 -10.461 -13.271 -9.823 -22.311 C 26.899 17.698 36.5 7.677 48.556 6.073 c -1.699 -0.232 -3.449 -0.306 -5.236 -0.194 C 30.445 6.687 19.941 17.103 19.033 29.971 c -0.638 9.04 3.344 17.184 9.823 22.311 c 3.662 2.898 5.878 7.244 5.878 11.914 v 7.578 c 0 1.315 1.066 2.381 2.381 2.381 h 7 C 42.8 74.155 41.734 73.089 41.734 71.774 z" style="stroke: none; stroke-width: 1; stroke-dasharray: none; stroke-linecap: butt; stroke-linejoin: miter; stroke-miterlimit: 10; fill: rgb(248,196,100); fill-rule: nonzero; opacity: 1;" transform=" matrix(1 0 0 1 0 0) " stroke-linecap="round" />
	<path d="M 43.28 79.863 v -5.708 h -6 v 5.708 c 0 2.381 1.93 4.311 4.311 4.311 h 6 C 45.21 84.174 43.28 82.244 43.28 79.863 z" style="stroke: none; stroke-width: 1; stroke-dasharray: none; stroke-linecap: butt; stroke-linejoin: miter; stroke-miterlimit: 10; fill: rgb(193,191,193); fill-rule: nonzero; opacity: 1;" transform=" matrix(1 0 0 1 0 0) " stroke-linecap="round" />
	<path d="M 34.734 64.816 v 6.958 c 0 1.315 1.066 2.381 2.381 2.381 h 15.769 c 1.315 0 2.381 -1.066 2.381 -2.381 v -6.958 H 34.734 z" style="stroke: none; stroke-width: 1; stroke-dasharray: none; stroke-linecap: butt; stroke-linejoin: miter; stroke-miterlimit: 10; fill: rgb(226,223,226); fill-rule: nonzero; opacity: 1;" transform=" matrix(1 0 0 1 0 0) " stroke-linecap="round" />
	<path d="M 34.734 64.816 v 6.958 c 0 1.315 1.066 2.381 2.381 2.381 h 7 c -1.315 0 -2.381 -1.066 -2.381 -2.381 v -6.958 H 34.734 z" style="stroke: none; stroke-width: 1; stroke-dasharray: none; stroke-linecap: butt; stroke-linejoin: miter; stroke-miterlimit: 10; fill: rgb(193,191,193); fill-rule: nonzero; opacity: 1;" transform=" matrix(1 0 0 1 0 0) " stroke-linecap="round" />
	<path d="M 48.409 85.174 h -6.818 c -2.929 0 -5.311 -2.382 -5.311 -5.311 v -5.708 c 0 -0.553 0.448 -1 1 -1 H 52.72 c 0.553 0 1 0.447 1 1 v 5.708 C 53.72 82.792 51.338 85.174 48.409 85.174 z M 38.28 75.155 v 4.708 c 0 1.825 1.485 3.311 3.311 3.311 h 6.818 c 1.825 0 3.311 -1.485 3.311 -3.311 v -4.708 H 38.28 z" style="stroke: none; stroke-width: 1; stroke-dasharray: none; stroke-linecap: butt; stroke-linejoin: miter; stroke-miterlimit: 10; fill: rgb(0,0,0); fill-rule: nonzero; opacity: 1;" transform=" matrix(1 0 0 1 0 0) " stroke-linecap="round" />
	<path d="M 89 32.334 H 78.418 c -0.553 0 -1 -0.448 -1 -1 s 0.447 -1 1 -1 H 89 c 0.553 0 1 0.448 1 1 S 89.553 32.334 89 32.334 z" style="stroke: none; stroke-width: 1; stroke-dasharray: none; stroke-linecap: butt; stroke-linejoin: miter; stroke-miterlimit: 10; fill: rgb(0,0,0); fill-rule: nonzero; opacity: 1;" transform=" matrix(1 0 0 1 0 0) " stroke-linecap="round" />
	<path d="M 11.583 32.334 H 1 c -0.552 0 -1 -0.448 -1 -1 s 0.448 -1 1 -1 h 10.583 c 0.552 0 1 0.448 1 1 S 12.135 32.334 11.583 32.334 z" style="stroke: none; stroke-width: 1; stroke-dasharray: none; stroke-linecap: butt; stroke-linejoin: miter; stroke-miterlimit: 10; fill: rgb(0,0,0); fill-rule: nonzero; opacity: 1;" transform=" matrix(1 0 0 1 0 0) " stroke-linecap="round" />
	<path d="M 74.229 16.133 c -0.352 0 -0.693 -0.186 -0.876 -0.515 c -0.268 -0.483 -0.093 -1.092 0.391 -1.359 l 9.256 -5.13 c 0.482 -0.268 1.092 -0.093 1.359 0.39 s 0.093 1.092 -0.391 1.359 l -9.256 5.13 C 74.559 16.093 74.393 16.133 74.229 16.133 z" style="stroke: none; stroke-width: 1; stroke-dasharray: none; stroke-linecap: butt; stroke-linejoin: miter; stroke-miterlimit: 10; fill: rgb(0,0,0); fill-rule: nonzero; opacity: 1;" transform=" matrix(1 0 0 1 0 0) " stroke-linecap="round" />
	<path d="M 6.518 53.666 c -0.352 0 -0.693 -0.186 -0.875 -0.516 c -0.268 -0.482 -0.093 -1.091 0.39 -1.359 l 9.255 -5.131 c 0.483 -0.267 1.091 -0.093 1.359 0.391 c 0.268 0.482 0.093 1.091 -0.39 1.359 l -9.255 5.131 C 6.848 53.626 6.682 53.666 6.518 53.666 z" style="stroke: none; stroke-width: 1; stroke-dasharray: none; stroke-linecap: butt; stroke-linejoin: miter; stroke-miterlimit: 10; fill: rgb(0,0,0); fill-rule: nonzero; opacity: 1;" transform=" matrix(1 0 0 1 0 0) " stroke-linecap="round" />
	<path d="M 15.771 16.133 c -0.164 0 -0.33 -0.04 -0.484 -0.125 l -9.255 -5.13 C 5.549 10.609 5.374 10 5.642 9.518 C 5.91 9.035 6.518 8.86 7.001 9.128 l 9.255 5.13 c 0.483 0.268 0.658 0.876 0.39 1.359 C 16.464 15.947 16.123 16.133 15.771 16.133 z" style="stroke: none; stroke-width: 1; stroke-dasharray: none; stroke-linecap: butt; stroke-linejoin: miter; stroke-miterlimit: 10; fill: rgb(0,0,0); fill-rule: nonzero; opacity: 1;" transform=" matrix(1 0 0 1 0 0) " stroke-linecap="round" />
	<path d="M 83.482 53.666 c -0.164 0 -0.33 -0.04 -0.483 -0.125 l -9.256 -5.131 c -0.483 -0.269 -0.658 -0.877 -0.391 -1.359 c 0.268 -0.484 0.878 -0.658 1.359 -0.391 l 9.256 5.131 c 0.483 0.269 0.658 0.877 0.391 1.359 C 84.176 53.48 83.834 53.666 83.482 53.666 z" style="stroke: none; stroke-width: 1; stroke-dasharray: none; stroke-linecap: butt; stroke-linejoin: miter; stroke-miterlimit: 10; fill: rgb(0,0,0); fill-rule: nonzero; opacity: 1;" transform=" matrix(1 0 0 1 0 0) " stroke-linecap="round" />
	<path d="M 55.266 65.816 H 34.734 c -0.552 0 -1 -0.447 -1 -1 v -0.621 c 0 -4.308 -2.004 -8.363 -5.499 -11.129 l 0 0 c -7.019 -5.555 -10.832 -14.215 -10.2 -23.166 c 0.947 -13.42 11.79 -24.176 25.222 -25.02 C 50.809 4.4 58.006 6.988 63.504 12.15 c 5.421 5.092 8.53 12.275 8.53 19.71 c 0 8.406 -3.813 16.189 -10.46 21.355 c -3.324 2.584 -5.309 6.688 -5.309 10.979 v 0.623 C 56.266 65.369 55.818 65.816 55.266 65.816 z M 35.73 63.816 h 18.541 c 0.112 -4.767 2.366 -9.297 6.077 -12.181 c 6.156 -4.784 9.687 -11.992 9.687 -19.776 c 0 -6.985 -2.806 -13.468 -7.899 -18.252 c -5.091 -4.78 -11.739 -7.17 -18.753 -6.731 C 30.946 7.658 20.907 17.616 20.03 30.041 c -0.585 8.292 2.946 16.313 9.446 21.457 C 33.351 54.564 35.616 59.036 35.73 63.816 z" style="stroke: none; stroke-width: 1; stroke-dasharray: none; stroke-linecap: butt; stroke-linejoin: miter; stroke-miterlimit: 10; fill: rgb(0,0,0); fill-rule: nonzero; opacity: 1;" transform=" matrix(1 0 0 1 0 0) " stroke-linecap="round" />
	<path d="M 52.885 75.154 h -15.77 c -1.864 0 -3.381 -1.517 -3.381 -3.381 v -6.957 c 0 -0.553 0.448 -1 1 -1 h 20.531 c 0.553 0 1 0.447 1 1 v 6.957 C 56.266 73.638 54.749 75.154 52.885 75.154 z M 35.734 65.816 v 5.957 c 0 0.762 0.62 1.381 1.381 1.381 h 15.77 c 0.762 0 1.381 -0.619 1.381 -1.381 v -5.957 H 35.734 z" style="stroke: none; stroke-width: 1; stroke-dasharray: none; stroke-linecap: butt; stroke-linejoin: miter; stroke-miterlimit: 10; fill: rgb(0,0,0); fill-rule: nonzero; opacity: 1;" transform=" matrix(1 0 0 1 0 0) " stroke-linecap="round" />
	<path d="M 41.221 39.801 h -5.434 c -3.547 0 -6.433 -2.886 -6.433 -6.433 s 2.886 -6.434 6.433 -6.434 s 6.434 2.886 6.434 6.434 v 5.433 C 42.221 39.354 41.773 39.801 41.221 39.801 z M 35.787 28.935 c -2.444 0 -4.433 1.989 -4.433 4.434 c 0 2.444 1.989 4.433 4.433 4.433 h 4.434 v -4.433 C 40.221 30.923 38.232 28.935 35.787 28.935 z" style="stroke: none; stroke-width: 1; stroke-dasharray: none; stroke-linecap: butt; stroke-linejoin: miter; stroke-miterlimit: 10; fill: rgb(0,0,0); fill-rule: nonzero; opacity: 1;" transform=" matrix(1 0 0 1 0 0) " stroke-linecap="round" />
	<path d="M 54.213 39.801 h -5.434 c -0.553 0 -1 -0.448 -1 -1 v -5.433 c 0 -3.547 2.886 -6.434 6.434 -6.434 s 6.434 2.886 6.434 6.434 S 57.761 39.801 54.213 39.801 z M 49.779 37.801 h 4.434 c 2.444 0 4.434 -1.989 4.434 -4.433 c 0 -2.445 -1.989 -4.434 -4.434 -4.434 s -4.434 1.989 -4.434 4.434 V 37.801 z" style="stroke: none; stroke-width: 1; stroke-dasharray: none; stroke-linecap: butt; stroke-linejoin: miter; stroke-miterlimit: 10; fill: rgb(0,0,0); fill-rule: nonzero; opacity: 1;" transform=" matrix(1 0 0 1 0 0) " stroke-linecap="round" />
	<path d="M 41.221 65.816 c -0.552 0 -1 -0.447 -1 -1 V 38.801 c 0 -0.552 0.448 -1 1 -1 h 7.559 c 0.553 0 1 0.448 1 1 s -0.447 1 -1 1 h -6.559 v 25.015 C 42.221 65.369 41.773 65.816 41.221 65.816 z" style="stroke: none; stroke-width: 1; stroke-dasharray: none; stroke-linecap: butt; stroke-linejoin: miter; stroke-miterlimit: 10; fill: rgb(0,0,0); fill-rule: nonzero; opacity: 1;" transform=" matrix(1 0 0 1 0 0) " stroke-linecap="round" />
	<path d="M 48.779 65.816 c -0.553 0 -1 -0.447 -1 -1 V 38.801 c 0 -0.552 0.447 -1 1 -1 s 1 0.448 1 1 v 26.015 C 49.779 65.369 49.332 65.816 48.779 65.816 z" style="stroke: none; stroke-width: 1; stroke-dasharray: none; stroke-linecap: butt; stroke-linejoin: miter; stroke-miterlimit: 10; fill: rgb(0,0,0); fill-rule: nonzero; opacity: 1;" transform=" matrix(1 0 0 1 0 0) " stroke-linecap="round" />
</g>
</svg>
