<svg xmlns="http://www.w3.org/2000/svg" xmlns:xlink="http://www.w3.org/1999/xlink" version="1.1" width="55" height="55" viewBox="0 0 256 256" xml:space="preserve">

<defs>
</defs>
<g style="stroke: none; stroke-width: 0; stroke-dasharray: none; stroke-linecap: butt; stroke-linejoin: miter; stroke-miterlimit: 10; fill: none; fill-rule: nonzero; opacity: 1;" transform="translate(1.4065934065934016 1.4065934065934016) scale(2.81 2.81)" >
	<path d="M 86.871 37.785 h -2.854 v -7.498 c 0 -1.838 -1.49 -3.328 -3.328 -3.328 H 4.328 C 2.49 26.959 1 28.449 1 30.287 v 29.426 c 0 1.838 1.49 3.328 3.328 3.328 H 80.69 c 1.838 0 3.328 -1.49 3.328 -3.328 v -7.498 h 2.854 c 1.176 0 2.129 -0.953 2.129 -2.129 V 39.914 C 89 38.738 88.047 37.785 86.871 37.785 z" style="stroke: none; stroke-width: 1; stroke-dasharray: none; stroke-linecap: butt; stroke-linejoin: miter; stroke-miterlimit: 10; fill: rgb(73,201,102); fill-rule: nonzero; opacity: 1;" transform=" matrix(1 0 0 1 0 0) " stroke-linecap="round" />
	<path d="M 80.689 64.041 H 4.328 C 1.941 64.041 0 62.1 0 59.713 V 30.287 c 0 -2.386 1.941 -4.328 4.328 -4.328 h 76.362 c 2.387 0 4.328 1.941 4.328 4.328 v 6.498 h 1.854 c 1.726 0 3.129 1.404 3.129 3.129 v 10.172 c 0 1.726 -1.403 3.129 -3.129 3.129 h -1.854 v 6.498 C 85.018 62.1 83.076 64.041 80.689 64.041 z M 4.328 27.959 C 3.044 27.959 2 29.003 2 30.287 v 29.426 c 0 1.284 1.044 2.328 2.328 2.328 h 76.362 c 1.284 0 2.328 -1.044 2.328 -2.328 v -7.498 c 0 -0.553 0.447 -1 1 -1 h 2.854 c 0.622 0 1.129 -0.507 1.129 -1.129 V 39.914 c 0 -0.623 -0.507 -1.129 -1.129 -1.129 h -2.854 c -0.553 0 -1 -0.448 -1 -1 v -7.498 c 0 -1.284 -1.044 -2.328 -2.328 -2.328 H 4.328 z" style="stroke: none; stroke-width: 1; stroke-dasharray: none; stroke-linecap: butt; stroke-linejoin: miter; stroke-miterlimit: 10; fill: rgb(0,0,0); fill-rule: nonzero; opacity: 1;" transform=" matrix(1 0 0 1 0 0) " stroke-linecap="round" />
	<path d="M 53.237 48.288 c 0.176 -0.093 0.189 -0.339 0.025 -0.451 l -5.205 -3.55 l -1.94 -1.323 c -0.128 -0.087 -0.154 -0.266 -0.055 -0.385 l 7.561 -9.214 c 0.183 -0.223 -0.073 -0.535 -0.327 -0.4 l -16.531 8.748 c -0.176 0.093 -0.189 0.339 -0.025 0.451 l 5.205 3.55 l 1.94 1.323 c 0.128 0.087 0.154 0.266 0.055 0.385 l -7.561 9.214 c -0.183 0.223 0.073 0.535 0.327 0.4 L 53.237 48.288 z" style="stroke: none; stroke-width: 1; stroke-dasharray: none; stroke-linecap: butt; stroke-linejoin: miter; stroke-miterlimit: 10; fill: rgb(255,226,102); fill-rule: nonzero; opacity: 1;" transform=" matrix(1 0 0 1 0 0) " stroke-linecap="round" />
	<path d="M 36.577 58.07 c -0.367 0 -0.724 -0.163 -0.973 -0.467 c -0.386 -0.472 -0.385 -1.131 0.001 -1.602 l 7.052 -8.593 l -6.481 -4.42 c -0.369 -0.251 -0.575 -0.668 -0.55 -1.115 c 0.025 -0.446 0.276 -0.837 0.672 -1.046 l 16.53 -8.748 c 0.537 -0.286 1.184 -0.154 1.569 0.317 c 0.386 0.472 0.385 1.13 -0.001 1.602 l -7.051 8.592 l 6.48 4.42 c 0.367 0.249 0.573 0.665 0.55 1.11 c -0.023 0.446 -0.273 0.839 -0.668 1.05 c -0.001 0 -0.002 0.001 -0.003 0.001 L 37.173 57.92 C 36.982 58.021 36.778 58.07 36.577 58.07 z M 38.311 42.025 l 6.137 4.185 c 0.294 0.203 0.489 0.518 0.539 0.867 c 0.049 0.349 -0.05 0.705 -0.273 0.978 l -5.24 6.385 l 12.215 -6.464 l -6.137 -4.186 c -0.292 -0.198 -0.489 -0.514 -0.539 -0.865 s 0.05 -0.709 0.275 -0.982 l 5.238 -6.382 L 38.311 42.025 z M 52.697 48.662 c 0.001 0.001 0.002 0.002 0.003 0.002 L 52.697 48.662 z M 53.236 48.288 h 0.01 H 53.236 z M 46.835 43.211 l -0.001 0.002 C 46.834 43.212 46.835 43.211 46.835 43.211 z M 37.233 42.596 l -0.001 0 C 37.232 42.596 37.232 42.596 37.233 42.596 z M 46.678 42.136 l 0.003 0.001 C 46.68 42.137 46.679 42.137 46.678 42.136 z" style="stroke: none; stroke-width: 1; stroke-dasharray: none; stroke-linecap: butt; stroke-linejoin: miter; stroke-miterlimit: 10; fill: rgb(0,0,0); fill-rule: nonzero; opacity: 1;" transform=" matrix(1 0 0 1 0 0) " stroke-linecap="round" />
</g>
</svg>
