<svg xmlns="http://www.w3.org/2000/svg" xmlns:xlink="http://www.w3.org/1999/xlink" version="1.1" width="55" height="55" viewBox="0 0 256 256" xml:space="preserve">

<defs>
</defs>
<g style="stroke: none; stroke-width: 0; stroke-dasharray: none; stroke-linecap: butt; stroke-linejoin: miter; stroke-miterlimit: 10; fill: none; fill-rule: nonzero; opacity: 1;" transform="translate(1.4065934065934016 1.4065934065934016) scale(2.81 2.81)" >
	<path d="M 86.941 35.122 h -5.661 V 24.003 c 0 -1.777 -1.441 -3.218 -3.218 -3.218 H 4.218 C 2.441 20.785 1 22.226 1 24.003 v 41.994 c 0 1.777 1.441 3.218 3.218 3.218 h 73.844 c 1.777 0 3.218 -1.441 3.218 -3.218 V 54.878 h 5.661 c 1.137 0 2.059 -0.922 2.059 -2.059 V 37.18 C 89 36.043 88.078 35.122 86.941 35.122 z" style="stroke: none; stroke-width: 1; stroke-dasharray: none; stroke-linecap: butt; stroke-linejoin: miter; stroke-miterlimit: 10; fill: rgb(34,179,127); fill-rule: nonzero; opacity: 1;" transform=" matrix(1 0 0 1 0 0) " stroke-linecap="round" />
	<path d="M 78.063 70.215 H 4.218 C 1.892 70.215 0 68.323 0 65.997 V 24.003 c 0 -2.326 1.892 -4.218 4.218 -4.218 h 73.844 c 2.326 0 4.219 1.892 4.219 4.218 v 10.119 h 4.66 c 1.687 0 3.059 1.372 3.059 3.059 v 15.639 c 0 1.687 -1.372 3.059 -3.059 3.059 h -4.66 v 10.119 C 82.281 68.323 80.389 70.215 78.063 70.215 z M 4.218 21.785 C 2.995 21.785 2 22.78 2 24.003 v 41.994 c 0 1.223 0.995 2.218 2.218 2.218 h 73.844 c 1.224 0 2.219 -0.995 2.219 -2.218 V 54.878 c 0 -0.553 0.447 -1 1 -1 h 5.66 c 0.584 0 1.059 -0.475 1.059 -1.059 V 37.18 c 0 -0.583 -0.475 -1.059 -1.059 -1.059 h -5.66 c -0.553 0 -1 -0.448 -1 -1 V 24.003 c 0 -1.223 -0.995 -2.218 -2.219 -2.218 H 4.218 z" style="stroke: none; stroke-width: 1; stroke-dasharray: none; stroke-linecap: butt; stroke-linejoin: miter; stroke-miterlimit: 10; fill: rgb(0,0,0); fill-rule: nonzero; opacity: 1;" transform=" matrix(1 0 0 1 0 0) " stroke-linecap="round" />
	<polygon points="57.09,42.74 45.23,42.74 49.1,28.15 32.91,47.26 44.77,47.26 40.9,61.85 " style="stroke: none; stroke-width: 1; stroke-dasharray: none; stroke-linecap: butt; stroke-linejoin: miter; stroke-miterlimit: 10; fill: rgb(254,223,48); fill-rule: nonzero; opacity: 1;" transform="  matrix(1 0 0 1 0 0) "/>
	<path d="M 40.901 62.846 c -0.157 0 -0.315 -0.037 -0.462 -0.113 c -0.414 -0.217 -0.624 -0.691 -0.504 -1.143 l 3.535 -13.33 H 32.912 c -0.39 0 -0.744 -0.227 -0.907 -0.579 c -0.164 -0.354 -0.107 -0.771 0.144 -1.067 l 16.187 -19.106 c 0.303 -0.357 0.813 -0.454 1.226 -0.24 c 0.414 0.216 0.624 0.691 0.504 1.143 L 46.53 41.74 h 10.558 c 0.39 0 0.743 0.226 0.907 0.58 s 0.107 0.77 -0.145 1.067 L 41.665 62.492 C 41.47 62.723 41.188 62.846 40.901 62.846 z M 35.07 46.26 h 9.7 c 0.311 0 0.603 0.145 0.792 0.391 s 0.254 0.565 0.174 0.865 l -2.732 10.301 L 54.93 43.74 h -9.7 c -0.311 0 -0.604 -0.144 -0.792 -0.39 c -0.189 -0.246 -0.254 -0.566 -0.174 -0.866 l 2.732 -10.3 L 35.07 46.26 z" style="stroke: none; stroke-width: 1; stroke-dasharray: none; stroke-linecap: butt; stroke-linejoin: miter; stroke-miterlimit: 10; fill: rgb(0,0,0); fill-rule: nonzero; opacity: 1;" transform=" matrix(1 0 0 1 0 0) " stroke-linecap="round" />
</g>
</svg>
