<svg xmlns="http://www.w3.org/2000/svg" xmlns:xlink="http://www.w3.org/1999/xlink" version="1.1" width="55" height="55" viewBox="0 0 256 256" xml:space="preserve">

<defs>
</defs>
<g style="stroke: none; stroke-width: 0; stroke-dasharray: none; stroke-linecap: butt; stroke-linejoin: miter; stroke-miterlimit: 10; fill: none; fill-rule: nonzero; opacity: 1;" transform="translate(1.4065934065934016 1.4065934065934016) scale(2.81 2.81)" >
	<path d="M 35.122 3.059 v 5.661 H 24.003 c -1.777 0 -3.218 1.441 -3.218 3.218 v 73.844 c 0 1.777 1.441 3.218 3.218 3.218 h 41.994 c 1.777 0 3.218 -1.441 3.218 -3.218 V 11.937 c 0 -1.777 -1.441 -3.218 -3.218 -3.218 H 54.878 V 3.059 C 54.878 1.922 53.957 1 52.82 1 H 37.18 C 36.043 1 35.122 1.922 35.122 3.059 z" style="stroke: none; stroke-width: 1; stroke-dasharray: none; stroke-linecap: butt; stroke-linejoin: miter; stroke-miterlimit: 10; fill: rgb(34,179,127); fill-rule: nonzero; opacity: 1;" transform=" matrix(1 0 0 1 0 0) " stroke-linecap="round" />
	<path d="M 65.997 90 H 24.003 c -2.326 0 -4.218 -1.892 -4.218 -4.218 V 11.938 c 0 -2.326 1.892 -4.218 4.218 -4.218 h 10.119 V 3.059 C 34.122 1.372 35.494 0 37.18 0 h 15.639 c 1.687 0 3.059 1.372 3.059 3.059 v 4.661 h 10.119 c 2.326 0 4.218 1.892 4.218 4.218 v 73.845 C 70.215 88.108 68.323 90 65.997 90 z M 24.003 9.719 c -1.223 0 -2.218 0.995 -2.218 2.218 v 73.845 c 0 1.223 0.995 2.218 2.218 2.218 h 41.994 c 1.223 0 2.218 -0.995 2.218 -2.218 V 11.938 c 0 -1.223 -0.995 -2.218 -2.218 -2.218 H 54.878 c -0.553 0 -1 -0.448 -1 -1 V 3.059 C 53.878 2.475 53.403 2 52.819 2 H 37.18 c -0.583 0 -1.059 0.475 -1.059 1.059 v 5.661 c 0 0.552 -0.448 1 -1 1 H 24.003 z" style="stroke: none; stroke-width: 1; stroke-dasharray: none; stroke-linecap: butt; stroke-linejoin: miter; stroke-miterlimit: 10; fill: rgb(0,0,0); fill-rule: nonzero; opacity: 1;" transform=" matrix(1 0 0 1 0 0) " stroke-linecap="round" />
	<polygon points="61.62,45.89 45.32,45.89 50.64,25.83 28.38,52.11 44.68,52.11 39.36,72.17 " style="stroke: none; stroke-width: 1; stroke-dasharray: none; stroke-linecap: butt; stroke-linejoin: miter; stroke-miterlimit: 10; fill: rgb(254,223,48); fill-rule: nonzero; opacity: 1;" transform="  matrix(1 0 0 1 0 0) "/>
	<path d="M 39.364 73.167 c -0.157 0 -0.315 -0.037 -0.462 -0.113 c -0.414 -0.217 -0.624 -0.691 -0.504 -1.143 l 4.986 -18.803 H 28.377 c -0.39 0 -0.744 -0.227 -0.907 -0.579 c -0.164 -0.354 -0.107 -0.771 0.144 -1.067 l 22.259 -26.275 c 0.304 -0.356 0.813 -0.454 1.226 -0.24 c 0.414 0.216 0.624 0.691 0.504 1.143 l -4.986 18.802 h 15.007 c 0.39 0 0.743 0.226 0.907 0.58 s 0.107 0.77 -0.145 1.066 L 40.127 72.813 C 39.932 73.044 39.65 73.167 39.364 73.167 z M 30.535 51.108 h 14.149 c 0.311 0 0.603 0.145 0.792 0.391 s 0.254 0.565 0.174 0.865 l -4.183 15.773 l 17.998 -21.245 H 45.316 c -0.311 0 -0.603 -0.145 -0.792 -0.391 s -0.254 -0.566 -0.174 -0.866 l 4.183 -15.772 L 30.535 51.108 z" style="stroke: none; stroke-width: 1; stroke-dasharray: none; stroke-linecap: butt; stroke-linejoin: miter; stroke-miterlimit: 10; fill: rgb(0,0,0); fill-rule: nonzero; opacity: 1;" transform=" matrix(1 0 0 1 0 0) " stroke-linecap="round" />
</g>
</svg>
