<svg xmlns="http://www.w3.org/2000/svg" xmlns:xlink="http://www.w3.org/1999/xlink" version="1.1" width="100" height="100" viewBox="0 0 256 256" xml:space="preserve">

<defs>
</defs>
<g style="stroke: none; stroke-width: 0; stroke-dasharray: none; stroke-linecap: butt; stroke-linejoin: miter; stroke-miterlimit: 10; fill: none; fill-rule: nonzero; opacity: 1;" transform="translate(1.4065934065934016 1.4065934065934016) scale(2.81 2.81)" >
	<path d="M 59.977 41.819 c 0 -11.194 -9.075 -20.269 -20.269 -20.269 S 19.44 30.625 19.44 41.819 H 59.977" style="stroke: none; stroke-width: 1; stroke-dasharray: none; stroke-linecap: butt; stroke-linejoin: miter; stroke-miterlimit: 10; fill: rgb(253,182,47); fill-rule: nonzero; opacity: 1;" transform=" matrix(1 0 0 1 0 0) " stroke-linecap="round" />
	<polygon points="80.14,61 89,61 89,76.81 80.14,76.81 80.14,86.89 1.1,86.89 1.1,50.91 80.14,50.91 " style="stroke: none; stroke-width: 1; stroke-dasharray: none; stroke-linecap: butt; stroke-linejoin: miter; stroke-miterlimit: 10; fill: rgb(67,152,209); fill-rule: nonzero; opacity: 1;" transform="  matrix(1 0 0 1 0 0) "/>
	<path d="M 59.978 42.819 H 19.44 c -0.552 0 -1 -0.448 -1 -1 c 0 -11.728 9.541 -21.269 21.269 -21.269 c 11.728 0 21.269 9.541 21.269 21.269 C 60.978 42.371 60.53 42.819 59.978 42.819 z M 20.465 40.819 h 38.487 C 58.43 30.657 49.998 22.55 39.708 22.55 S 20.987 30.657 20.465 40.819 z" style="stroke: none; stroke-width: 1; stroke-dasharray: none; stroke-linecap: butt; stroke-linejoin: miter; stroke-miterlimit: 10; fill: rgb(0,0,0); fill-rule: nonzero; opacity: 1;" transform=" matrix(1 0 0 1 0 0) " stroke-linecap="round" />
	<path d="M 78.417 42.819 H 68.87 c -0.553 0 -1 -0.448 -1 -1 s 0.447 -1 1 -1 h 9.547 c 0.553 0 1 0.448 1 1 S 78.97 42.819 78.417 42.819 z" style="stroke: none; stroke-width: 1; stroke-dasharray: none; stroke-linecap: butt; stroke-linejoin: miter; stroke-miterlimit: 10; fill: rgb(0,0,0); fill-rule: nonzero; opacity: 1;" transform=" matrix(1 0 0 1 0 0) " stroke-linecap="round" />
	<path d="M 10.547 42.819 H 1 c -0.552 0 -1 -0.448 -1 -1 s 0.448 -1 1 -1 h 9.547 c 0.552 0 1 0.448 1 1 S 11.099 42.819 10.547 42.819 z" style="stroke: none; stroke-width: 1; stroke-dasharray: none; stroke-linecap: butt; stroke-linejoin: miter; stroke-miterlimit: 10; fill: rgb(0,0,0); fill-rule: nonzero; opacity: 1;" transform=" matrix(1 0 0 1 0 0) " stroke-linecap="round" />
	<path d="M 39.708 13.657 c -0.552 0 -1 -0.448 -1 -1 V 3.11 c 0 -0.552 0.448 -1 1 -1 s 1 0.448 1 1 v 9.547 C 40.708 13.209 40.261 13.657 39.708 13.657 z" style="stroke: none; stroke-width: 1; stroke-dasharray: none; stroke-linecap: butt; stroke-linejoin: miter; stroke-miterlimit: 10; fill: rgb(0,0,0); fill-rule: nonzero; opacity: 1;" transform=" matrix(1 0 0 1 0 0) " stroke-linecap="round" />
	<path d="M 60.329 22.199 c -0.256 0 -0.512 -0.098 -0.707 -0.293 c -0.391 -0.39 -0.391 -1.023 0 -1.414 l 6.75 -6.751 c 0.391 -0.391 1.023 -0.391 1.414 0 c 0.391 0.39 0.391 1.023 0 1.414 l -6.75 6.751 C 60.841 22.101 60.585 22.199 60.329 22.199 z" style="stroke: none; stroke-width: 1; stroke-dasharray: none; stroke-linecap: butt; stroke-linejoin: miter; stroke-miterlimit: 10; fill: rgb(0,0,0); fill-rule: nonzero; opacity: 1;" transform=" matrix(1 0 0 1 0 0) " stroke-linecap="round" />
	<path d="M 19.088 22.199 c -0.256 0 -0.512 -0.098 -0.707 -0.293 l -6.751 -6.751 c -0.391 -0.391 -0.391 -1.023 0 -1.414 s 1.023 -0.391 1.414 0 l 6.751 6.751 c 0.391 0.391 0.391 1.023 0 1.414 C 19.6 22.101 19.344 22.199 19.088 22.199 z" style="stroke: none; stroke-width: 1; stroke-dasharray: none; stroke-linecap: butt; stroke-linejoin: miter; stroke-miterlimit: 10; fill: rgb(0,0,0); fill-rule: nonzero; opacity: 1;" transform=" matrix(1 0 0 1 0 0) " stroke-linecap="round" />
	<path d="M 80.144 87.89 H 1.096 c -0.552 0 -1 -0.447 -1 -1 V 50.915 c 0 -0.553 0.448 -1 1 -1 h 79.048 c 0.553 0 1 0.447 1 1 v 9.082 H 89 c 0.553 0 1 0.447 1 1 v 15.811 c 0 0.553 -0.447 1 -1 1 h -7.856 v 9.082 C 81.144 87.442 80.696 87.89 80.144 87.89 z M 2.096 85.89 h 77.048 v -9.082 c 0 -0.553 0.447 -1 1 -1 H 88 V 61.997 h -7.856 c -0.553 0 -1 -0.447 -1 -1 v -9.082 H 2.096 V 85.89 z" style="stroke: none; stroke-width: 1; stroke-dasharray: none; stroke-linecap: butt; stroke-linejoin: miter; stroke-miterlimit: 10; fill: rgb(0,0,0); fill-rule: nonzero; opacity: 1;" transform=" matrix(1 0 0 1 0 0) " stroke-linecap="round" />
	<path d="M 8.529 77.89 c -0.552 0 -1 -0.447 -1 -1 V 60.915 c 0 -0.553 0.448 -1 1 -1 s 1 0.447 1 1 V 76.89 C 9.529 77.442 9.082 77.89 8.529 77.89 z" style="stroke: none; stroke-width: 1; stroke-dasharray: none; stroke-linecap: butt; stroke-linejoin: miter; stroke-miterlimit: 10; fill: rgb(0,0,0); fill-rule: nonzero; opacity: 1;" transform=" matrix(1 0 0 1 0 0) " stroke-linecap="round" />
	<path d="M 16.529 77.89 c -0.552 0 -1 -0.447 -1 -1 V 60.915 c 0 -0.553 0.448 -1 1 -1 s 1 0.447 1 1 V 76.89 C 17.529 77.442 17.082 77.89 16.529 77.89 z" style="stroke: none; stroke-width: 1; stroke-dasharray: none; stroke-linecap: butt; stroke-linejoin: miter; stroke-miterlimit: 10; fill: rgb(0,0,0); fill-rule: nonzero; opacity: 1;" transform=" matrix(1 0 0 1 0 0) " stroke-linecap="round" />
	<path d="M 24.529 77.89 c -0.552 0 -1 -0.447 -1 -1 V 60.915 c 0 -0.553 0.448 -1 1 -1 s 1 0.447 1 1 V 76.89 C 25.529 77.442 25.082 77.89 24.529 77.89 z" style="stroke: none; stroke-width: 1; stroke-dasharray: none; stroke-linecap: butt; stroke-linejoin: miter; stroke-miterlimit: 10; fill: rgb(0,0,0); fill-rule: nonzero; opacity: 1;" transform=" matrix(1 0 0 1 0 0) " stroke-linecap="round" />
	<path d="M 32.529 77.89 c -0.552 0 -1 -0.447 -1 -1 V 60.915 c 0 -0.553 0.448 -1 1 -1 s 1 0.447 1 1 V 76.89 C 33.529 77.442 33.082 77.89 32.529 77.89 z" style="stroke: none; stroke-width: 1; stroke-dasharray: none; stroke-linecap: butt; stroke-linejoin: miter; stroke-miterlimit: 10; fill: rgb(0,0,0); fill-rule: nonzero; opacity: 1;" transform=" matrix(1 0 0 1 0 0) " stroke-linecap="round" />
	<path d="M 40.529 77.89 c -0.552 0 -1 -0.447 -1 -1 V 60.915 c 0 -0.553 0.448 -1 1 -1 s 1 0.447 1 1 V 76.89 C 41.529 77.442 41.082 77.89 40.529 77.89 z" style="stroke: none; stroke-width: 1; stroke-dasharray: none; stroke-linecap: butt; stroke-linejoin: miter; stroke-miterlimit: 10; fill: rgb(0,0,0); fill-rule: nonzero; opacity: 1;" transform=" matrix(1 0 0 1 0 0) " stroke-linecap="round" />
</g>
</svg>
