<svg xmlns="http://www.w3.org/2000/svg" xmlns:xlink="http://www.w3.org/1999/xlink" version="1.1" width="55" height="55" viewBox="0 0 256 256" xml:space="preserve">

<defs>
</defs>
<g style="stroke: none; stroke-width: 0; stroke-dasharray: none; stroke-linecap: butt; stroke-linejoin: miter; stroke-miterlimit: 10; fill: none; fill-rule: nonzero; opacity: 1;" transform="translate(1.4065934065934016 1.4065934065934016) scale(2.81 2.81)" >
	<path d="M 79.453 20.536 c 0 5.65 -4.58 10.23 -10.23 10.23 s -10.23 -4.58 -10.23 -10.23 s 4.58 -10.23 10.23 -10.23 S 79.453 14.887 79.453 20.536" style="stroke: none; stroke-width: 1; stroke-dasharray: none; stroke-linecap: butt; stroke-linejoin: miter; stroke-miterlimit: 10; fill: rgb(255,240,105); fill-rule: nonzero; opacity: 1;" transform=" matrix(1 0 0 1 0 0) " stroke-linecap="round" />
	<polygon points="39.48,83.87 26.13,83.87 4.65,30.94 18,30.94 " style="stroke: none; stroke-width: 1; stroke-dasharray: none; stroke-linecap: butt; stroke-linejoin: miter; stroke-miterlimit: 10; fill: rgb(103,214,244); fill-rule: nonzero; opacity: 1;" transform="  matrix(1 0 0 1 0 0) "/>
	<polygon points="52.83,83.87 39.48,83.87 18,30.94 31.35,30.94 " style="stroke: none; stroke-width: 1; stroke-dasharray: none; stroke-linecap: butt; stroke-linejoin: miter; stroke-miterlimit: 10; fill: rgb(103,214,244); fill-rule: nonzero; opacity: 1;" transform="  matrix(1 0 0 1 0 0) "/>
	<polygon points="66.18,83.87 52.83,83.87 31.35,30.94 44.69,30.94 " style="stroke: none; stroke-width: 1; stroke-dasharray: none; stroke-linecap: butt; stroke-linejoin: miter; stroke-miterlimit: 10; fill: rgb(103,214,244); fill-rule: nonzero; opacity: 1;" transform="  matrix(1 0 0 1 0 0) "/>
	<polygon points="26.13,83.87 22.72,89 1.24,36.07 4.65,30.94 " style="stroke: none; stroke-width: 1; stroke-dasharray: none; stroke-linecap: butt; stroke-linejoin: miter; stroke-miterlimit: 10; fill: rgb(249,249,249); fill-rule: nonzero; opacity: 1;" transform="  matrix(1 0 0 1 0 0) "/>
	<polygon points="66.18,83.87 62.77,89 22.72,89 26.13,83.87 " style="stroke: none; stroke-width: 1; stroke-dasharray: none; stroke-linecap: butt; stroke-linejoin: miter; stroke-miterlimit: 10; fill: rgb(249,249,249); fill-rule: nonzero; opacity: 1;" transform="  matrix(1 0 0 1 0 0) "/>
	<path d="M 88.759 21.536 H 83.94 c -0.553 0 -1 -0.448 -1 -1 s 0.447 -1 1 -1 h 4.818 c 0.553 0 1 0.448 1 1 S 89.312 21.536 88.759 21.536 z" style="stroke: none; stroke-width: 1; stroke-dasharray: none; stroke-linecap: butt; stroke-linejoin: miter; stroke-miterlimit: 10; fill: rgb(0,0,0); fill-rule: nonzero; opacity: 1;" transform=" matrix(1 0 0 1 0 0) " stroke-linecap="round" />
	<path d="M 54.505 21.536 h -4.818 c -0.553 0 -1 -0.448 -1 -1 s 0.447 -1 1 -1 h 4.818 c 0.553 0 1 0.448 1 1 S 55.058 21.536 54.505 21.536 z" style="stroke: none; stroke-width: 1; stroke-dasharray: none; stroke-linecap: butt; stroke-linejoin: miter; stroke-miterlimit: 10; fill: rgb(0,0,0); fill-rule: nonzero; opacity: 1;" transform=" matrix(1 0 0 1 0 0) " stroke-linecap="round" />
	<path d="M 69.223 6.818 c -0.553 0 -1 -0.448 -1 -1 V 1 c 0 -0.552 0.447 -1 1 -1 s 1 0.448 1 1 v 4.818 C 70.223 6.371 69.775 6.818 69.223 6.818 z" style="stroke: none; stroke-width: 1; stroke-dasharray: none; stroke-linecap: butt; stroke-linejoin: miter; stroke-miterlimit: 10; fill: rgb(0,0,0); fill-rule: nonzero; opacity: 1;" transform=" matrix(1 0 0 1 0 0) " stroke-linecap="round" />
	<path d="M 79.63 11.129 c -0.256 0 -0.512 -0.098 -0.707 -0.293 c -0.391 -0.391 -0.391 -1.024 0 -1.414 l 3.407 -3.407 c 0.391 -0.391 1.023 -0.391 1.414 0 s 0.391 1.024 0 1.414 l -3.407 3.407 C 80.142 11.031 79.886 11.129 79.63 11.129 z" style="stroke: none; stroke-width: 1; stroke-dasharray: none; stroke-linecap: butt; stroke-linejoin: miter; stroke-miterlimit: 10; fill: rgb(0,0,0); fill-rule: nonzero; opacity: 1;" transform=" matrix(1 0 0 1 0 0) " stroke-linecap="round" />
	<path d="M 58.815 11.129 c -0.256 0 -0.512 -0.098 -0.707 -0.293 l -3.406 -3.407 c -0.391 -0.391 -0.391 -1.024 0 -1.414 c 0.391 -0.391 1.023 -0.391 1.414 0 l 3.406 3.407 c 0.391 0.391 0.391 1.024 0 1.414 C 59.327 11.031 59.071 11.129 58.815 11.129 z" style="stroke: none; stroke-width: 1; stroke-dasharray: none; stroke-linecap: butt; stroke-linejoin: miter; stroke-miterlimit: 10; fill: rgb(0,0,0); fill-rule: nonzero; opacity: 1;" transform=" matrix(1 0 0 1 0 0) " stroke-linecap="round" />
	<path d="M 69.223 31.766 c -6.192 0 -11.229 -5.038 -11.229 -11.229 S 63.03 9.307 69.223 9.307 s 11.229 5.038 11.229 11.229 S 75.415 31.766 69.223 31.766 z M 69.223 11.307 c -5.089 0 -9.229 4.14 -9.229 9.229 s 4.141 9.229 9.229 9.229 s 9.229 -4.14 9.229 -9.229 S 74.312 11.307 69.223 11.307 z" style="stroke: none; stroke-width: 1; stroke-dasharray: none; stroke-linecap: butt; stroke-linejoin: miter; stroke-miterlimit: 10; fill: rgb(0,0,0); fill-rule: nonzero; opacity: 1;" transform=" matrix(1 0 0 1 0 0) " stroke-linecap="round" />
	<path d="M 69.223 41.072 c -0.553 0 -1 -0.448 -1 -1 v -4.818 c 0 -0.552 0.447 -1 1 -1 s 1 0.448 1 1 v 4.818 C 70.223 40.625 69.775 41.072 69.223 41.072 z" style="stroke: none; stroke-width: 1; stroke-dasharray: none; stroke-linecap: butt; stroke-linejoin: miter; stroke-miterlimit: 10; fill: rgb(0,0,0); fill-rule: nonzero; opacity: 1;" transform=" matrix(1 0 0 1 0 0) " stroke-linecap="round" />
	<path d="M 83.037 35.351 c -0.256 0 -0.512 -0.098 -0.707 -0.293 l -3.407 -3.407 c -0.391 -0.391 -0.391 -1.023 0 -1.414 s 1.023 -0.391 1.414 0 l 3.407 3.407 c 0.391 0.391 0.391 1.023 0 1.414 C 83.549 35.253 83.293 35.351 83.037 35.351 z" style="stroke: none; stroke-width: 1; stroke-dasharray: none; stroke-linecap: butt; stroke-linejoin: miter; stroke-miterlimit: 10; fill: rgb(0,0,0); fill-rule: nonzero; opacity: 1;" transform=" matrix(1 0 0 1 0 0) " stroke-linecap="round" />
	<path d="M 55.409 35.351 c -0.256 0 -0.512 -0.098 -0.707 -0.293 c -0.391 -0.39 -0.391 -1.023 0 -1.414 l 3.406 -3.407 c 0.391 -0.391 1.023 -0.391 1.414 0 c 0.391 0.39 0.391 1.023 0 1.414 l -3.406 3.407 C 55.921 35.253 55.665 35.351 55.409 35.351 z" style="stroke: none; stroke-width: 1; stroke-dasharray: none; stroke-linecap: butt; stroke-linejoin: miter; stroke-miterlimit: 10; fill: rgb(0,0,0); fill-rule: nonzero; opacity: 1;" transform=" matrix(1 0 0 1 0 0) " stroke-linecap="round" />
	<path d="M 39.479 84.872 H 26.13 c -0.407 0 -0.773 -0.247 -0.927 -0.624 L 3.722 31.319 c -0.125 -0.308 -0.088 -0.659 0.097 -0.935 c 0.186 -0.276 0.497 -0.441 0.83 -0.441 h 13.349 c 0.407 0 0.773 0.247 0.927 0.624 l 21.482 52.929 c 0.125 0.309 0.088 0.658 -0.097 0.935 C 40.123 84.707 39.812 84.872 39.479 84.872 z M 26.804 82.872 h 11.19 l -20.67 -50.929 H 6.133 L 26.804 82.872 z" style="stroke: none; stroke-width: 1; stroke-dasharray: none; stroke-linecap: butt; stroke-linejoin: miter; stroke-miterlimit: 10; fill: rgb(0,0,0); fill-rule: nonzero; opacity: 1;" transform=" matrix(1 0 0 1 0 0) " stroke-linecap="round" />
	<path d="M 52.827 84.872 H 39.479 c -0.407 0 -0.773 -0.247 -0.927 -0.624 L 17.07 31.319 c -0.125 -0.308 -0.088 -0.659 0.097 -0.935 c 0.186 -0.276 0.497 -0.441 0.83 -0.441 h 13.349 c 0.407 0 0.773 0.247 0.927 0.624 l 21.481 52.929 c 0.125 0.309 0.089 0.658 -0.098 0.935 C 53.471 84.707 53.16 84.872 52.827 84.872 z M 40.152 82.872 h 11.189 L 30.672 31.943 h -11.19 L 40.152 82.872 z" style="stroke: none; stroke-width: 1; stroke-dasharray: none; stroke-linecap: butt; stroke-linejoin: miter; stroke-miterlimit: 10; fill: rgb(0,0,0); fill-rule: nonzero; opacity: 1;" transform=" matrix(1 0 0 1 0 0) " stroke-linecap="round" />
	<path d="M 66.176 84.872 H 52.827 c -0.407 0 -0.773 -0.247 -0.927 -0.624 L 30.419 31.319 c -0.125 -0.308 -0.088 -0.659 0.097 -0.935 c 0.186 -0.276 0.497 -0.441 0.83 -0.441 h 13.349 c 0.407 0 0.773 0.247 0.927 0.624 l 21.481 52.929 c 0.125 0.309 0.089 0.658 -0.098 0.935 C 66.819 84.707 66.509 84.872 66.176 84.872 z M 53.501 82.872 H 64.69 L 44.021 31.943 h -11.19 L 53.501 82.872 z" style="stroke: none; stroke-width: 1; stroke-dasharray: none; stroke-linecap: butt; stroke-linejoin: miter; stroke-miterlimit: 10; fill: rgb(0,0,0); fill-rule: nonzero; opacity: 1;" transform=" matrix(1 0 0 1 0 0) " stroke-linecap="round" />
	<path d="M 55.186 58.407 H 15.39 c -0.552 0 -1 -0.447 -1 -1 s 0.448 -1 1 -1 h 39.796 c 0.553 0 1 0.447 1 1 S 55.738 58.407 55.186 58.407 z" style="stroke: none; stroke-width: 1; stroke-dasharray: none; stroke-linecap: butt; stroke-linejoin: miter; stroke-miterlimit: 10; fill: rgb(0,0,0); fill-rule: nonzero; opacity: 1;" transform=" matrix(1 0 0 1 0 0) " stroke-linecap="round" />
	<path d="M 50.131 45.338 H 10.085 c -0.552 0 -1 -0.448 -1 -1 s 0.448 -1 1 -1 h 40.046 c 0.553 0 1 0.448 1 1 S 50.684 45.338 50.131 45.338 z" style="stroke: none; stroke-width: 1; stroke-dasharray: none; stroke-linecap: butt; stroke-linejoin: miter; stroke-miterlimit: 10; fill: rgb(0,0,0); fill-rule: nonzero; opacity: 1;" transform=" matrix(1 0 0 1 0 0) " stroke-linecap="round" />
	<path d="M 61.264 72.769 H 21.218 c -0.552 0 -1 -0.447 -1 -1 s 0.448 -1 1 -1 h 40.045 c 0.553 0 1 0.447 1 1 S 61.816 72.769 61.264 72.769 z" style="stroke: none; stroke-width: 1; stroke-dasharray: none; stroke-linecap: butt; stroke-linejoin: miter; stroke-miterlimit: 10; fill: rgb(0,0,0); fill-rule: nonzero; opacity: 1;" transform=" matrix(1 0 0 1 0 0) " stroke-linecap="round" />
	<path d="M 22.723 90 c -0.033 0 -0.067 -0.002 -0.1 -0.005 c -0.369 -0.037 -0.687 -0.275 -0.827 -0.619 L 0.314 36.447 c -0.124 -0.306 -0.089 -0.654 0.094 -0.93 l 3.408 -5.128 c 0.205 -0.309 0.565 -0.483 0.933 -0.441 c 0.369 0.037 0.687 0.275 0.827 0.619 l 21.482 52.929 c 0.124 0.307 0.089 0.654 -0.094 0.93 l -3.408 5.128 C 23.369 89.834 23.055 90 22.723 90 z M 2.366 36.185 L 22.938 86.87 l 2.067 -3.111 L 4.434 33.073 L 2.366 36.185 z" style="stroke: none; stroke-width: 1; stroke-dasharray: none; stroke-linecap: butt; stroke-linejoin: miter; stroke-miterlimit: 10; fill: rgb(0,0,0); fill-rule: nonzero; opacity: 1;" transform=" matrix(1 0 0 1 0 0) " stroke-linecap="round" />
	<path d="M 62.769 90 H 22.723 c -0.369 0 -0.707 -0.203 -0.881 -0.527 c -0.174 -0.325 -0.155 -0.719 0.048 -1.026 l 3.408 -5.128 c 0.186 -0.278 0.498 -0.446 0.833 -0.446 h 40.045 c 0.368 0 0.707 0.203 0.881 0.527 c 0.175 0.325 0.156 0.719 -0.048 1.026 l -3.407 5.128 C 63.416 89.832 63.104 90 62.769 90 z M 24.588 88 h 37.645 l 2.078 -3.128 H 26.667 L 24.588 88 z" style="stroke: none; stroke-width: 1; stroke-dasharray: none; stroke-linecap: butt; stroke-linejoin: miter; stroke-miterlimit: 10; fill: rgb(0,0,0); fill-rule: nonzero; opacity: 1;" transform=" matrix(1 0 0 1 0 0) " stroke-linecap="round" />
</g>
</svg>
