<svg xmlns="http://www.w3.org/2000/svg" xmlns:xlink="http://www.w3.org/1999/xlink" version="1.1" width="100" height="100" viewBox="0 0 256 256" xml:space="preserve">
<defs>
</defs>
<g style="stroke: none; stroke-width: 0; stroke-dasharray: none; stroke-linecap: butt; stroke-linejoin: miter; stroke-miterlimit: 10; fill: none; fill-rule: nonzero; opacity: 1;" transform="translate(1.4065934065934016 1.4065934065934016) scale(2.81 2.81)" >
	<circle cx="47.859" cy="45.199" r="23.239" style="stroke: none; stroke-width: 1; stroke-dasharray: none; stroke-linecap: butt; stroke-linejoin: miter; stroke-miterlimit: 10; fill: rgb(253,182,47); fill-rule: nonzero; opacity: 1;" transform="  matrix(1 0 0 1 0 0) "/>
	<path d="M 14.62 46 H 3.768 c -0.552 0 -1 -0.448 -1 -1 s 0.448 -1 1 -1 H 14.62 c 0.552 0 1 0.448 1 1 S 15.172 46 14.62 46 z" style="stroke: none; stroke-width: 1; stroke-dasharray: none; stroke-linecap: butt; stroke-linejoin: miter; stroke-miterlimit: 10; fill: rgb(0,0,0); fill-rule: nonzero; opacity: 1;" transform=" matrix(1 0 0 1 0 0) " stroke-linecap="round" />
	<path d="M 47.768 12.852 c -0.553 0 -1 -0.448 -1 -1 V 1 c 0 -0.552 0.447 -1 1 -1 s 1 0.448 1 1 v 10.852 C 48.768 12.404 48.32 12.852 47.768 12.852 z" style="stroke: none; stroke-width: 1; stroke-dasharray: none; stroke-linecap: butt; stroke-linejoin: miter; stroke-miterlimit: 10; fill: rgb(0,0,0); fill-rule: nonzero; opacity: 1;" transform=" matrix(1 0 0 1 0 0) " stroke-linecap="round" />
	<path d="M 24.329 22.561 c -0.256 0 -0.512 -0.098 -0.707 -0.293 l -7.674 -7.674 c -0.391 -0.391 -0.391 -1.023 0 -1.414 s 1.023 -0.391 1.414 0 l 7.674 7.674 c 0.391 0.391 0.391 1.023 0 1.414 C 24.841 22.463 24.585 22.561 24.329 22.561 z" style="stroke: none; stroke-width: 1; stroke-dasharray: none; stroke-linecap: butt; stroke-linejoin: miter; stroke-miterlimit: 10; fill: rgb(0,0,0); fill-rule: nonzero; opacity: 1;" transform=" matrix(1 0 0 1 0 0) " stroke-linecap="round" />
	<path d="M 47.768 90 c -0.553 0 -1 -0.447 -1 -1 V 78.147 c 0 -0.553 0.447 -1 1 -1 s 1 0.447 1 1 V 89 C 48.768 89.553 48.32 90 47.768 90 z" style="stroke: none; stroke-width: 1; stroke-dasharray: none; stroke-linecap: butt; stroke-linejoin: miter; stroke-miterlimit: 10; fill: rgb(0,0,0); fill-rule: nonzero; opacity: 1;" transform=" matrix(1 0 0 1 0 0) " stroke-linecap="round" />
	<path d="M 16.655 77.112 c -0.256 0 -0.512 -0.098 -0.707 -0.293 c -0.391 -0.391 -0.391 -1.023 0 -1.414 l 7.674 -7.673 c 0.391 -0.391 1.023 -0.391 1.414 0 s 0.391 1.023 0 1.414 l -7.674 7.673 C 17.167 77.015 16.911 77.112 16.655 77.112 z" style="stroke: none; stroke-width: 1; stroke-dasharray: none; stroke-linecap: butt; stroke-linejoin: miter; stroke-miterlimit: 10; fill: rgb(0,0,0); fill-rule: nonzero; opacity: 1;" transform=" matrix(1 0 0 1 0 0) " stroke-linecap="round" />
	<path d="M 47.768 69.039 c -13.255 0 -24.039 -10.784 -24.039 -24.039 c 0 -13.255 10.784 -24.04 24.039 -24.04 c 7.844 0 15.214 3.843 19.715 10.28 c 0.316 0.453 0.206 1.076 -0.246 1.393 c -0.454 0.318 -1.076 0.207 -1.393 -0.246 c -4.127 -5.903 -10.885 -9.427 -18.076 -9.427 c -12.152 0 -22.039 9.887 -22.039 22.04 c 0 12.152 9.887 22.039 22.039 22.039 c 6.092 0 11.969 -2.557 16.125 -7.015 c 0.377 -0.405 1.011 -0.426 1.413 -0.05 c 0.404 0.377 0.427 1.01 0.05 1.413 C 60.822 66.25 54.412 69.039 47.768 69.039 z" style="stroke: none; stroke-width: 1; stroke-dasharray: none; stroke-linecap: butt; stroke-linejoin: miter; stroke-miterlimit: 10; fill: rgb(0,0,0); fill-rule: nonzero; opacity: 1;" transform=" matrix(1 0 0 1 0 0) " stroke-linecap="round" />
	<polygon points="86.23,42.76 74.75,42.76 79.27,14.68 55.3,47.24 66.79,47.24 62.27,75.32 84.58,45 " style="stroke: none; stroke-width: 1; stroke-dasharray: none; stroke-linecap: butt; stroke-linejoin: miter; stroke-miterlimit: 10; fill: rgb(67,152,209); fill-rule: nonzero; opacity: 1;" transform="  matrix(1 0 0 1 0 0) "/>
	<path d="M 62.266 76.317 c -0.13 0 -0.262 -0.025 -0.387 -0.078 c -0.426 -0.179 -0.674 -0.625 -0.601 -1.081 l 4.336 -26.913 H 55.304 c -0.377 0 -0.723 -0.212 -0.893 -0.549 s -0.137 -0.74 0.087 -1.044 L 78.465 14.09 c 0.274 -0.371 0.769 -0.506 1.192 -0.33 c 0.426 0.179 0.674 0.625 0.601 1.082 l -4.336 26.912 h 10.311 c 0.377 0 0.723 0.212 0.893 0.549 s 0.137 0.74 -0.087 1.044 L 63.071 75.91 C 62.878 76.173 62.576 76.317 62.266 76.317 z M 57.281 46.245 h 9.507 c 0.293 0 0.571 0.129 0.762 0.352 c 0.189 0.223 0.272 0.519 0.226 0.808 L 63.91 71.396 l 20.344 -27.641 h -9.506 c -0.293 0 -0.571 -0.128 -0.762 -0.352 c -0.189 -0.223 -0.272 -0.518 -0.226 -0.808 l 3.865 -23.991 L 57.281 46.245 z" style="stroke: none; stroke-width: 1; stroke-dasharray: none; stroke-linecap: butt; stroke-linejoin: miter; stroke-miterlimit: 10; fill: rgb(0,0,0); fill-rule: nonzero; opacity: 1;" transform=" matrix(1 0 0 1 0 0) " stroke-linecap="round" />
</g>
</svg>
