<svg xmlns="http://www.w3.org/2000/svg" xmlns:xlink="http://www.w3.org/1999/xlink" version="1.1" width="256" height="256" viewBox="0 0 256 256" xml:space="preserve">

<defs>
</defs>
<g style="stroke: none; stroke-width: 0; stroke-dasharray: none; stroke-linecap: butt; stroke-linejoin: miter; stroke-miterlimit: 10; fill: none; fill-rule: nonzero; opacity: 1;" transform="translate(1.4065934065934016 1.4065934065934016) scale(2.81 2.81)" >
	<polygon points="25.17,67.34 72.83,67.34 72.83,26.35 81.47,26.35 49,7.13 16.53,26.35 25.17,26.35 " style="stroke: none; stroke-width: 1; stroke-dasharray: none; stroke-linecap: butt; stroke-linejoin: miter; stroke-miterlimit: 10; fill: rgb(135,206,217); fill-rule: nonzero; opacity: 1;" transform="  matrix(1 0 0 1 0 0) "/>
	<rect x="42.17" y="37.35" rx="0" ry="0" width="13.67" height="29.99" style="stroke: none; stroke-width: 1; stroke-dasharray: none; stroke-linecap: butt; stroke-linejoin: miter; stroke-miterlimit: 10; fill: rgb(148,194,60); fill-rule: nonzero; opacity: 1;" transform=" matrix(1 0 0 1 0 0) "/>
	<rect x="1" y="56.15" rx="0" ry="0" width="13.53" height="26.95" style="stroke: none; stroke-width: 1; stroke-dasharray: none; stroke-linecap: butt; stroke-linejoin: miter; stroke-miterlimit: 10; fill: rgb(67,152,209); fill-rule: nonzero; opacity: 1;" transform=" matrix(1 0 0 1 0 0) "/>
	<path d="M 88.812 63.747 c -0.63 -2.057 -2.689 -3.321 -4.807 -2.944 c -6.373 1.135 -14.088 3.499 -21.357 5.203 l -0.001 -0.001 l 0.001 0 c -0.371 -4.127 -3.759 -7.33 -7.9 -7.47 l -1.88 -0.063 c -6.139 0 -12.817 -4.463 -18.5 -4.463 c -4.996 0 -9.818 1.085 -15.128 5.724 c -0.672 0.587 -1.535 0.919 -2.427 0.912 l -1.823 -0.083 v 17.597 h 5.352 c 1.687 0 3.369 0.185 5.015 0.552 l 14.402 3.211 c 1.3 0.29 2.63 0.427 3.962 0.407 l 7.97 -0.116 c 2.234 -0.032 4.439 -0.503 6.492 -1.386 l 28.241 -11.927 C 88.419 68.045 89.448 65.823 88.812 63.747 z" style="stroke: none; stroke-width: 1; stroke-dasharray: none; stroke-linecap: butt; stroke-linejoin: miter; stroke-miterlimit: 10; fill: rgb(254,201,163); fill-rule: nonzero; opacity: 1;" transform=" matrix(1 0 0 1 0 0) " stroke-linecap="round" />
	<path d="M 62.647 66.775 c -0.512 0 -0.948 -0.391 -0.995 -0.91 c -0.325 -3.617 -3.308 -6.437 -6.938 -6.56 l -1.88 -0.063 c 0 0 -0.001 0 -0.002 0 c -3.267 0.001 -6.639 -1.195 -9.901 -2.352 c -3.059 -1.085 -5.949 -2.109 -8.563 -2.109 c -4.055 0 -8.946 0.65 -14.47 5.477 c -0.866 0.756 -1.977 1.154 -3.093 1.159 l -2.322 -0.104 c -0.552 -0.025 -0.979 -0.492 -0.954 -1.044 c 0.025 -0.553 0.499 -0.986 1.044 -0.954 l 2.285 0.104 c 0.589 -0.007 1.227 -0.231 1.724 -0.666 c 6.022 -5.262 11.359 -5.971 15.785 -5.971 c 2.959 0 6.148 1.131 9.232 2.224 c 3.103 1.101 6.313 2.238 9.269 2.238 l 1.914 0.064 c 4.637 0.156 8.446 3.759 8.862 8.379 c 0.05 0.551 -0.356 1.036 -0.906 1.086 C 62.708 66.774 62.678 66.775 62.647 66.775 z" style="stroke: none; stroke-width: 1; stroke-dasharray: none; stroke-linecap: butt; stroke-linejoin: miter; stroke-miterlimit: 10; fill: rgb(0,0,0); fill-rule: nonzero; opacity: 1;" transform=" matrix(1 0 0 1 0 0) " stroke-linecap="round" />
	<path d="M 43.472 83.103 c -1.32 0 -2.641 -0.146 -3.931 -0.434 L 25.14 79.459 c -1.573 -0.351 -3.187 -0.528 -4.798 -0.528 h -5.814 c -0.552 0 -1 -0.447 -1 -1 s 0.448 -1 1 -1 h 5.814 c 1.757 0 3.518 0.194 5.233 0.577 l 14.401 3.211 c 1.222 0.271 2.476 0.396 3.729 0.383 l 7.97 -0.115 c 2.113 -0.031 4.17 -0.471 6.112 -1.305 l 28.247 -11.93 c 1.523 -0.655 2.309 -2.351 1.821 -3.942 c -0.48 -1.573 -2.058 -2.543 -3.676 -2.253 c -3.898 0.694 -8.247 1.838 -12.85 3.049 c -12.497 3.288 -25.421 6.685 -31.218 1.368 c -0.407 -0.374 -0.435 -1.006 -0.061 -1.413 c 0.373 -0.406 1.005 -0.435 1.413 -0.062 c 4.995 4.582 17.937 1.176 29.358 -1.827 c 4.644 -1.222 9.031 -2.376 13.01 -3.084 c 2.605 -0.462 5.162 1.099 5.937 3.637 c 0.787 2.568 -0.481 5.306 -2.95 6.367 l -28.247 11.93 c -2.178 0.936 -4.489 1.43 -6.866 1.465 l -7.97 0.115 C 43.647 83.102 43.56 83.103 43.472 83.103 z" style="stroke: none; stroke-width: 1; stroke-dasharray: none; stroke-linecap: butt; stroke-linejoin: miter; stroke-miterlimit: 10; fill: rgb(0,0,0); fill-rule: nonzero; opacity: 1;" transform=" matrix(1 0 0 1 0 0) " stroke-linecap="round" />
	<path d="M 14.528 83.871 H 1 c -0.552 0 -1 -0.447 -1 -1 v -26.95 c 0 -0.553 0.448 -1 1 -1 h 13.527 c 0.552 0 1 0.447 1 1 v 26.95 C 15.528 83.423 15.08 83.871 14.528 83.871 z M 2 81.871 h 11.527 v -24.95 H 2 V 81.871 z" style="stroke: none; stroke-width: 1; stroke-dasharray: none; stroke-linecap: butt; stroke-linejoin: miter; stroke-miterlimit: 10; fill: rgb(0,0,0); fill-rule: nonzero; opacity: 1;" transform=" matrix(1 0 0 1 0 0) " stroke-linecap="round" />
	<path d="M 72.833 57.396 c -0.553 0 -1 -0.447 -1 -1 V 26.352 c 0 -0.552 0.447 -1 1 -1 h 4.987 L 49 8.291 L 20.18 25.352 h 4.987 c 0.552 0 1 0.448 1 1 v 21.045 c 0 0.553 -0.448 1 -1 1 s -1 -0.447 -1 -1 V 27.352 h -7.64 c -0.451 0 -0.846 -0.301 -0.964 -0.736 c -0.119 -0.435 0.067 -0.895 0.455 -1.124 L 48.49 6.268 c 0.314 -0.187 0.705 -0.187 1.02 0 l 32.472 19.223 c 0.388 0.229 0.573 0.69 0.455 1.124 c -0.119 0.435 -0.515 0.736 -0.965 0.736 h -7.64 v 29.045 C 73.833 56.949 73.385 57.396 72.833 57.396 z" style="stroke: none; stroke-width: 1; stroke-dasharray: none; stroke-linecap: butt; stroke-linejoin: miter; stroke-miterlimit: 10; fill: rgb(0,0,0); fill-rule: nonzero; opacity: 1;" transform=" matrix(1 0 0 1 0 0) " stroke-linecap="round" />
	<path d="M 55.833 53.396 c -0.553 0 -1 -0.447 -1 -1 V 38.352 H 43.167 v 9.045 c 0 0.553 -0.448 1 -1 1 c -0.552 0 -1 -0.447 -1 -1 V 37.352 c 0 -0.552 0.448 -1 1 -1 h 13.666 c 0.553 0 1 0.448 1 1 v 15.045 C 56.833 52.949 56.386 53.396 55.833 53.396 z" style="stroke: none; stroke-width: 1; stroke-dasharray: none; stroke-linecap: butt; stroke-linejoin: miter; stroke-miterlimit: 10; fill: rgb(0,0,0); fill-rule: nonzero; opacity: 1;" transform=" matrix(1 0 0 1 0 0) " stroke-linecap="round" />
</g>
</svg>