<?xml version="1.0" encoding="UTF-8" standalone="no"?>
<svg
   version="1.1"
   width="65"
   height="65"
   viewBox="0 0 256 256"
   xml:space="preserve"
   id="svg2"
   sodipodi:docname="off-4780.svg"
   inkscape:version="1.3 (0e150ed6c4, 2023-07-21)"
   xmlns:inkscape="http://www.inkscape.org/namespaces/inkscape"
   xmlns:sodipodi="http://sodipodi.sourceforge.net/DTD/sodipodi-0.dtd"
   xmlns="http://www.w3.org/2000/svg"
   xmlns:svg="http://www.w3.org/2000/svg"><sodipodi:namedview
   id="namedview2"
   pagecolor="#ffffff"
   bordercolor="#000000"
   borderopacity="0.25"
   inkscape:showpageshadow="2"
   inkscape:pageopacity="0.0"
   inkscape:pagecheckerboard="0"
   inkscape:deskcolor="#d1d1d1"
   inkscape:zoom="1.5371094"
   inkscape:cx="75.141042"
   inkscape:cy="121.98221"
   inkscape:window-width="1920"
   inkscape:window-height="1001"
   inkscape:window-x="-9"
   inkscape:window-y="-9"
   inkscape:window-maximized="1"
   inkscape:current-layer="svg2" />&#10;&#10;<defs
   id="defs1">&#10;</defs>&#10;<g
   style="opacity:1;fill:none;fill-rule:nonzero;stroke:none;stroke-width:0;stroke-linecap:butt;stroke-linejoin:miter;stroke-miterlimit:10;stroke-dasharray:none"
   transform="matrix(2.81,0,0,2.81,-3.7979809,1.4065934)"
   id="g2">&#10;	<path
   d="m 45,53.126 c -2.761,0 -5,-2.238 -5,-5 V 5 c 0,-2.761 2.239,-5 5,-5 2.762,0 5,2.239 5,5 v 43.126 c 0,2.762 -2.238,5 -5,5 z"
   style="opacity:1;fill:#f22c2c;fill-rule:nonzero;stroke:none;stroke-width:1;stroke-linecap:butt;stroke-linejoin:miter;stroke-miterlimit:10;stroke-dasharray:none"
   stroke-linecap="round"
   id="path1" />&#10;	<path
   d="M 45,90 C 21.832,90 2.983,71.151 2.983,47.983 c 0,-16.176 9.039,-30.643 23.588,-37.755 2.481,-1.213 5.476,-0.184 6.688,2.296 1.212,2.481 0.185,5.475 -2.296,6.688 C 19.873,24.633 12.984,35.657 12.984,47.983 12.983,65.638 27.346,80 45,80 62.654,80 77.017,65.638 77.017,47.983 c 0,-12.326 -6.89,-23.35 -17.979,-28.771 -2.481,-1.213 -3.51,-4.207 -2.297,-6.688 1.213,-2.48 4.21,-3.506 6.688,-2.296 C 77.98,17.34 87.018,31.807 87.018,47.983 87.017,71.151 68.168,90 45,90 Z"
   style="opacity:1;fill:#f22c2c;fill-rule:nonzero;stroke:none;stroke-width:1;stroke-linecap:butt;stroke-linejoin:miter;stroke-miterlimit:10;stroke-dasharray:none"
   stroke-linecap="round"
   id="path2" />&#10;</g>&#10;</svg>
