<?xml version="1.0" encoding="UTF-8" standalone="no"?>
<svg
   version="1.1"
   width="65"
   height="65"
   viewBox="0 0 246 257"
   xml:space="preserve"
   id="svg2"
   sodipodi:docname="switch off_alt.svg"
   inkscape:version="1.3 (0e150ed6c4, 2023-07-21)"
   xmlns:inkscape="http://www.inkscape.org/namespaces/inkscape"
   xmlns:sodipodi="http://sodipodi.sourceforge.net/DTD/sodipodi-0.dtd"
   xmlns="http://www.w3.org/2000/svg"
   xmlns:svg="http://www.w3.org/2000/svg"><sodipodi:namedview
   id="namedview2"
   pagecolor="#ffffff"
   bordercolor="#000000"
   borderopacity="0.25"
   inkscape:showpageshadow="2"
   inkscape:pageopacity="0.0"
   inkscape:pagecheckerboard="0"
   inkscape:deskcolor="#d1d1d1"
   inkscape:zoom="1.5371094"
   inkscape:cx="75.141041"
   inkscape:cy="121.98221"
   inkscape:window-width="1920"
   inkscape:window-height="1001"
   inkscape:window-x="-9"
   inkscape:window-y="-9"
   inkscape:window-maximized="1"
   inkscape:current-layer="svg2" />&#10;&#10;<defs
   id="defs1">&#10;</defs>&#10;<g
   style="opacity:1;fill:#c50000;fill-rule:nonzero;stroke:none;stroke-width:0;stroke-linecap:butt;stroke-linejoin:miter;stroke-miterlimit:10;stroke-dasharray:none;fill-opacity:1"
   transform="matrix(2.81,0,0,2.81,-3.7979809,1.4065934)"
   id="g2">&#10;	<path
   d="m 45,53.126 c -2.761,0 -5,-2.238 -5,-5 V 5 c 0,-2.761 2.239,-5 5,-5 2.762,0 5,2.239 5,5 v 43.126 c 0,2.762 -2.238,5 -5,5 z"
   style="opacity:1;fill:#c50000;fill-rule:nonzero;stroke:none;stroke-width:1;stroke-linecap:butt;stroke-linejoin:miter;stroke-miterlimit:10;stroke-dasharray:none;fill-opacity:1"
   stroke-linecap="round"
   id="path1" />&#10;	<path
   d="M 45,90 C 21.832,90 2.983,71.151 2.983,47.983 c 0,-16.176 9.039,-30.643 23.588,-37.755 2.481,-1.213 5.476,-0.184 6.688,2.296 1.212,2.481 0.185,5.475 -2.296,6.688 C 19.873,24.633 12.984,35.657 12.984,47.983 12.983,65.638 27.346,80 45,80 62.654,80 77.017,65.638 77.017,47.983 c 0,-12.326 -6.89,-23.35 -17.979,-28.771 -2.481,-1.213 -3.51,-4.207 -2.297,-6.688 1.213,-2.48 4.21,-3.506 6.688,-2.296 C 77.98,17.34 87.018,31.807 87.018,47.983 87.017,71.151 68.168,90 45,90 Z"
   style="opacity:1;fill:#c50000;fill-rule:nonzero;stroke:none;stroke-width:1;stroke-linecap:butt;stroke-linejoin:miter;stroke-miterlimit:10;stroke-dasharray:none;fill-opacity:1"
   stroke-linecap="round"
   id="path2" />&#10;</g>&#10;<path
   style="opacity:0.9;fill:#c50000;stroke-width:245.885;fill-opacity:1"
   d="M 110.27192,253.37996 C 58.926443,247.5616 17.398564,209.43543 7.1013939,158.66052 5.3095543,149.82503 4.6675879,130.86342 5.840998,121.43251 9.3610159,93.141488 23.357924,66.800316 44.880082,47.963771 54.700712,39.368596 69.709105,30.120887 75.28485,29.22929 c 3.569049,-0.570715 7.656234,0.725645 10.560621,3.349589 3.361322,3.036749 4.584007,5.849751 4.584007,10.546298 0,5.889068 -2.471171,9.156709 -10.083863,13.333934 -30.119092,16.52691 -47.815814,45.957079 -47.810575,79.510389 0.0023,14.7036 2.76314,26.79961 9.063844,39.71118 11.819536,24.22091 33.604338,41.86421 59.423916,48.12687 30.09851,7.30054 61.45515,-1.02958 83.75404,-22.24985 7.99421,-7.60754 13.5113,-15.12452 18.53425,-25.25275 4.51772,-9.10949 6.93007,-16.55129 8.53857,-26.34042 1.3622,-8.29012 0.86278,-25.28778 -0.97507,-33.1869 -6.17107,-26.523375 -21.77729,-47.011909 -45.95464,-60.331314 -7.47815,-4.119743 -9.58137,-6.814702 -9.96009,-12.762359 -0.20506,-3.220378 0.0258,-4.669458 1.07019,-6.716573 2.76698,-5.423728 8.55596,-8.600553 14.06714,-7.719642 5.07367,0.810978 18.82992,9.055065 28.42124,17.032772 41.21235,34.278928 53.61185,93.996276 29.4998,142.074336 -17.17892,34.25379 -48.43723,57.40357 -86.51887,64.07556 -7.09227,1.24258 -24.08241,1.75921 -31.22744,0.94955 z"
   id="path3" /><path
   style="opacity:0.9;fill:#c50000;stroke-width:245.885;fill-opacity:1"
   d="m 118.87798,149.74416 c -3.3618,-1.0457 -6.69603,-3.86284 -8.44498,-7.13528 l -1.46223,-2.73595 -0.17868,-61.786582 c -0.12607,-43.594435 0.0351,-62.81625 0.54731,-65.283672 0.78003,-3.7573771 3.84935,-7.8621425 7.15841,-9.5733251 5.00949,-2.59050743 10.86823,-1.6625353 15.30112,2.4235608 5.05435,4.6589423 4.82114,1.2586787 4.82114,70.2939793 0,44.614049 -0.20595,61.890789 -0.76422,64.107869 -1.04946,4.16781 -5.62057,8.73892 -9.78838,9.78839 -3.58523,0.90276 -3.98671,0.89724 -7.18949,-0.099 z"
   id="path4" /></svg>
