<?xml version="1.0" encoding="UTF-8" standalone="no"?>
<!-- Created with Inkscape (http://www.inkscape.org/) -->

<svg
   width="0.68in"
   height="0.68in"
   viewBox="0 0 64.606999 68.402197"
   version="1.1"
   id="svg1"
   inkscape:version="1.3 (0e150ed6c4, 2023-07-21)"
   sodipodi:docname="switch on_alt.svg"
   xmlns:inkscape="http://www.inkscape.org/namespaces/inkscape"
   xmlns:sodipodi="http://sodipodi.sourceforge.net/DTD/sodipodi-0.dtd"
   xmlns="http://www.w3.org/2000/svg"
   xmlns:svg="http://www.w3.org/2000/svg">
  <sodipodi:namedview
     id="namedview1"
     pagecolor="#ffffff"
     bordercolor="#000000"
     borderopacity="0.25"
     inkscape:showpageshadow="2"
     inkscape:pageopacity="0.0"
     inkscape:pagecheckerboard="0"
     inkscape:deskcolor="#d1d1d1"
     inkscape:document-units="mm"
     inkscape:zoom="0.99150695"
     inkscape:cx="250.6286"
     inkscape:cy="284.91984"
     inkscape:window-width="1920"
     inkscape:window-height="1001"
     inkscape:window-x="-9"
     inkscape:window-y="-9"
     inkscape:window-maximized="1"
     inkscape:current-layer="layer1" />
  <defs
     id="defs1" />
  <g
     inkscape:label="Layer 1"
     inkscape:groupmode="layer"
     id="layer1">
    <path
       style="opacity:0.9;fill:#00ff00;stroke:none;stroke-width:46.0023"
       d="M 29.655768,67.2087 C 22.033499,66.47177 15.076238,63.13174 9.8901903,57.71968 7.5303586,55.25701 5.8208486,52.80914 4.3225156,49.74725 c -2.070669,-4.23147 -2.994017,-8.0321 -3.119644,-12.84089 -0.137813,-5.27516 0.85453,-9.87638 3.136903,-14.5449 1.529755,-3.12907 3.264477,-5.53298 5.8895484,-8.16151 2.540085,-2.54344 5.306478,-4.5521393 8.134353,-5.9064293 0.938344,-0.44937 1.174377,-0.51275 1.909614,-0.51275 2.009428,0 3.581118,1.58806 3.588998,3.6263793 0.006,1.56464 -0.78018,2.66985 -2.519251,3.54132 -2.196943,1.10092 -4.343048,2.72062 -6.301763,4.75605 -1.835547,1.90744 -2.834458,3.32679 -4.011396,5.69981 -1.7113354,3.4505 -2.3926004,6.11159 -2.5239694,9.85888 -0.139697,3.98487 0.596226,7.5687 2.2815104,11.11064 2.002322,4.20826 5.278634,7.81823 9.300276,10.24742 4.072193,2.45972 9.272333,3.68574 13.984923,3.29718 5.74316,-0.47352 10.67914,-2.68874 14.7793,-6.63281 2.12312,-2.04229 3.64135,-4.11935 4.90605,-6.71189 3.97115,-8.1405 2.9861,-17.82061 -2.55052,-25.06429 -0.307,-0.40166 -1.07997,-1.27044 -1.71771,-1.93063 -1.84212,-1.90698 -3.55092,-3.19808 -5.96725,-4.50859 -2.10902,-1.14385 -2.73037,-1.99088 -2.73173,-3.72395 -7.9e-4,-1.09489 0.34512,-1.8757293 1.15552,-2.6078693 0.75155,-0.67898 1.47046,-0.95765 2.47053,-0.95765 0.78075,0 0.93653,0.0492 2.23856,0.70687 1.86604,0.94257 4.29373,2.5699093 5.93486,3.9782893 6.26167,5.37358 9.97413,12.59292 10.78439,20.97156 0.17559,1.81579 0.0811,5.23429 -0.19674,7.12031 -0.98709,6.69963 -4.04618,12.75834 -8.88089,17.58912 -4.86186,4.85792 -10.7195,7.80969 -17.52966,8.83352 -1.84074,0.27674 -5.42143,0.39167 -7.11156,0.22826 z"
       id="path4" />
    <path
       style="opacity:0.9;fill:#00ff00;stroke:none;stroke-width:46.0023"
       d="m 31.636298,39.82377 c -0.78676,-0.15768 -1.41867,-0.53678 -2.0322,-1.21917 -0.99796,-1.10997 -0.93079,0.22157 -0.93079,-18.45153 V 3.5656907 l 0.25932,-0.69309 c 0.3101,-0.82881 1.08652,-1.65561 1.90764,-2.03141 0.83551,-0.38238004 2.18809,-0.36963004 2.99653,0.0283 0.76277,0.37541 1.40821,1.02086 1.78363,1.78363 l 0.2949,0.59919 V 20.2315 37.21069 l -0.32526,0.61629 c -0.77677,1.47182 -2.42355,2.30351 -3.95377,1.99683 z"
       id="path5" />
  </g>
</svg>
