<?xml version="1.0" encoding="UTF-8" standalone="no"?>
<!-- Created with Inkscape-r (http://www.inkscape.org/) -->

<svg
   width="15mm"
   height="10mm"
   viewBox="0 0 157 10"
   version="1.1"
   id="svg1"
   sodipodi:docname="drawing_tata_1.svg"
   inkscape:version="1.3 (0e150ed6c4, 2023-07-21)"
   xmlns:inkscape="http://www.inkscape.org/namespaces/inkscape"
   xmlns:sodipodi="http://sodipodi.sourceforge.net/DTD/sodipodi-0.dtd"
   xmlns="http://www.w3.org/2000/svg"
   xmlns:svg="http://www.w3.org/2000/svg"
   xmlns:rdf="http://www.w3.org/1999/02/22-rdf-syntax-ns#"
   xmlns:cc="http://creativecommons.org/ns#">
  <sodipodi:namedview
     id="namedview1"
     pagecolor="#505050"
     bordercolor="#eeeeee"
     borderopacity="1"
     inkscape:showpageshadow="0"
     inkscape:pageopacity="0"
     inkscape:pagecheckerboard="0"
     inkscape:deskcolor="#505050"
     inkscape:document-units="mm"
     inkscape:zoom="1.4022026"
     inkscape:cx="469.97488"
     inkscape:cy="157.2526"
     inkscape:window-width="1920"
     inkscape:window-height="1001"
     inkscape:window-x="-9"
     inkscape:window-y="-9"
     inkscape:window-maximized="1"
     inkscape:current-layer="layer1" />
  <defs
     id="defs1">
    <clipPath
       clipPathUnits="userSpaceOnUse"
       id="clipPath2">
      <path
         d="M 0,600 H 800 V 0 H 0 Z"
         transform="translate(-319.09031,-287.65431)"
         id="path2" />
    </clipPath>
    <clipPath
       clipPathUnits="userSpaceOnUse"
       id="clipPath4">
      <path
         d="M 0,600 H 800 V 0 H 0 Z"
         transform="translate(-345.45461,-300.27201)"
         id="path4" />
    </clipPath>
    <clipPath
       clipPathUnits="userSpaceOnUse"
       id="clipPath6">
      <path
         d="M 0,600 H 800 V 0 H 0 Z"
         transform="translate(-371.73931,-297.58591)"
         id="path6" />
    </clipPath>
    <clipPath
       clipPathUnits="userSpaceOnUse"
       id="clipPath8">
      <path
         d="M 0,600 H 800 V 0 H 0 Z"
         transform="translate(-403.94631,-297.58591)"
         id="path8" />
    </clipPath>
    <clipPath
       clipPathUnits="userSpaceOnUse"
       id="clipPath10">
      <path
         d="M 0,600 H 800 V 0 H 0 Z"
         transform="translate(-418.74321,-313.12451)"
         id="path10" />
    </clipPath>
    <clipPath
       clipPathUnits="userSpaceOnUse"
       id="clipPath12">
      <path
         d="M 0,600 H 800 V 0 H 0 Z"
         transform="translate(-439.92971,-286.87701)"
         id="path12" />
    </clipPath>
    <clipPath
       clipPathUnits="userSpaceOnUse"
       id="clipPath14">
      <path
         d="M 0,600 H 800 V 0 H 0 Z"
         id="path14" />
    </clipPath>
    <clipPath
       clipPathUnits="userSpaceOnUse"
       id="clipPath16">
      <path
         d="M 0,600 H 800 V 0 H 0 Z"
         transform="translate(-495.34571,-287.65431)"
         id="path16" />
    </clipPath>
    <clipPath
       clipPathUnits="userSpaceOnUse"
       id="clipPath18">
      <path
         d="M 0,600 H 800 V 0 H 0 Z"
         transform="translate(-504.96481,-294.31641)"
         id="path18" />
    </clipPath>
    <clipPath
       clipPathUnits="userSpaceOnUse"
       id="clipPath20">
      <path
         d="M 0,600 H 800 V 0 H 0 Z"
         transform="translate(-526.34081,-309.11281)"
         id="path20" />
    </clipPath>
    <clipPath
       clipPathUnits="userSpaceOnUse"
       id="clipPath22">
      <path
         d="M 0,600 H 800 V 0 H 0 Z"
         id="path22" />
    </clipPath>
    <clipPath
       clipPathUnits="userSpaceOnUse"
       id="clipPath24">
      <path
         d="M 0,600 H 800 V 0 H 0 Z"
         transform="translate(-575.33111,-300.27201)"
         id="path24" />
    </clipPath>
    <clipPath
       clipPathUnits="userSpaceOnUse"
       id="clipPath26">
      <path
         d="M 0,600 H 800 V 0 H 0 Z"
         transform="translate(-579.45412,-286.87701)"
         id="path26" />
    </clipPath>
    <clipPath
       clipPathUnits="userSpaceOnUse"
       id="clipPath28">
      <path
         d="M 0,600 H 800 V 0 H 0 Z"
         transform="translate(-605.66212,-292.0957)"
         id="path28" />
    </clipPath>
    <clipPath
       clipPathUnits="userSpaceOnUse"
       id="clipPath30">
      <path
         d="M 0,600 H 800 V 0 H 0 Z"
         transform="translate(-185.81931,-286.98631)"
         id="path30" />
    </clipPath>
    <clipPath
       clipPathUnits="userSpaceOnUse"
       id="clipPath32">
      <path
         d="M 0,600 H 800 V 0 H 0 Z"
         transform="translate(-236.6704,-286.98631)"
         id="path32" />
    </clipPath>
    <clipPath
       clipPathUnits="userSpaceOnUse"
       id="clipPath34">
      <path
         d="M 0,600 H 800 V 0 H 0 Z"
         transform="translate(-201.3784,-286.9531)"
         id="path34" />
    </clipPath>
    <clipPath
       clipPathUnits="userSpaceOnUse"
       id="clipPath36">
      <path
         d="M 0,600 H 800 V 0 H 0 Z"
         transform="translate(-252.2095,-286.95901)"
         id="path36" />
    </clipPath>
  </defs>
  <g
     inkscape:label="Layer 1"
     inkscape:groupmode="layer"
     id="layer1">
    <g
       id="g1"
       transform="translate(-26.014351,-146.85788)">
      <path
         id="path1"
         d="m 0,0 c -1.129,-0.584 -3.624,-1.207 -6.778,-1.207 -8.333,0 -13.396,5.258 -13.396,13.242 0,8.645 5.996,13.864 14.02,13.864 3.155,0 5.413,-0.663 6.386,-1.168 l -1.049,-3.817 c -1.249,0.544 -2.961,1.011 -5.141,1.011 -5.335,0 -9.193,-3.347 -9.193,-9.657 0,-5.764 3.388,-9.463 9.155,-9.463 1.944,0 3.97,0.39 5.217,0.974"
         style="fill:#4e84c4;fill-opacity:1;fill-rule:nonzero;stroke:none"
         transform="matrix(0.35277776,0,0,-0.35277776,75.961033,156.04227)"
         clip-path="url(#clipPath2)" />
      <path
         id="path3"
         d="m 0,0 c 0,-8.803 -5.336,-13.825 -12.579,-13.825 -7.4,0 -12.073,5.649 -12.073,13.359 0,8.06 5.065,13.747 12.464,13.747 C -4.515,13.281 0,7.476 0,0 m -19.587,-0.39 c 0,-5.335 2.686,-9.62 7.281,-9.62 4.634,0 7.243,4.326 7.243,9.816 0,4.943 -2.451,9.658 -7.243,9.658 -4.749,0 -7.281,-4.441 -7.281,-9.854"
         style="fill:#4e84c4;fill-opacity:1;fill-rule:nonzero;stroke:none"
         transform="matrix(0.35277776,0,0,-0.35277776,85.261772,151.59103)"
         clip-path="url(#clipPath4)" />
      <path
         id="path5"
         d="M 0,0 C -0.155,3.389 -0.349,7.477 -0.311,11.061 H -0.429 C -1.282,7.827 -2.373,4.284 -3.544,0.975 l -3.815,-11.373 h -3.699 l -3.507,11.216 c -1.011,3.348 -1.948,6.931 -2.648,10.243 h -0.079 c -0.114,-3.468 -0.27,-7.636 -0.464,-11.217 l -0.587,-10.553 h -4.476 l 1.75,26.248 h 6.31 l 3.427,-10.555 c 0.934,-3.077 1.754,-6.191 2.416,-9.113 h 0.115 c 0.702,2.844 1.601,6.074 2.612,9.152 l 3.618,10.516 H 3.663 L 5.181,-10.709 H 0.51"
         style="fill:#4e84c4;fill-opacity:1;fill-rule:nonzero;stroke:none"
         transform="matrix(0.35277776,0,0,-0.35277776,94.534431,152.53862)"
         clip-path="url(#clipPath6)" />
      <path
         id="path7"
         d="M 0,0 C -0.154,3.389 -0.353,7.477 -0.311,11.061 H -0.429 C -1.285,7.827 -2.374,4.284 -3.545,0.975 l -3.816,-11.373 h -3.699 l -3.506,11.216 c -1.013,3.348 -1.946,6.931 -2.648,10.243 h -0.079 c -0.116,-3.468 -0.272,-7.636 -0.466,-11.217 l -0.585,-10.553 h -4.478 l 1.752,26.248 h 6.31 l 3.427,-10.555 c 0.935,-3.077 1.752,-6.191 2.415,-9.113 H -8.8 c 0.7,2.844 1.595,6.074 2.609,9.152 L -2.57,15.539 H 3.659 L 5.181,-10.709 H 0.507"
         style="fill:#4e84c4;fill-opacity:1;fill-rule:nonzero;stroke:none"
         transform="matrix(0.35277776,0,0,-0.35277776,105.89635,152.53862)"
         clip-path="url(#clipPath8)" />
      <path
         id="path9"
         d="m 0,0 v -15.304 c 0,-5.142 2.142,-7.516 5.374,-7.516 3.467,0 5.529,2.374 5.529,7.516 V 0 h 4.793 v -14.992 c 0,-8.103 -4.17,-11.683 -10.478,-11.683 -6.075,0 -10.006,3.386 -10.006,11.644 V 0"
         style="fill:#4e84c4;fill-opacity:1;fill-rule:nonzero;stroke:none"
         transform="matrix(0.35277776,0,0,-0.35277776,111.11636,147.05695)"
         clip-path="url(#clipPath10)" />
      <path
         id="path11"
         d="m 0,0 v 26.247 h 5.452 l 6.777,-11.254 c 1.751,-2.921 3.267,-5.96 4.474,-8.804 h 0.08 c -0.31,3.508 -0.425,6.896 -0.425,10.908 v 9.15 h 4.437 L 20.795,0 H 15.848 L 8.996,11.564 C 7.322,14.408 5.57,17.641 4.283,20.6 L 4.167,20.562 C 4.359,17.173 4.399,13.707 4.399,9.385 V 0"
         style="fill:#4e84c4;fill-opacity:1;fill-rule:nonzero;stroke:none"
         transform="matrix(0.35277776,0,0,-0.35277776,118.59049,156.31648)"
         clip-path="url(#clipPath12)" />
      <path
         id="path13"
         d="m 466.253,286.877 h 4.79 v 26.247 h -4.79 z"
         style="fill:#4e84c4;fill-opacity:1;fill-rule:nonzero;stroke:none"
         transform="matrix(0.35277776,0,0,-0.35277776,-36.606932,257.52032)"
         clip-path="url(#clipPath14)" />
      <path
         id="path15"
         d="m 0,0 c -1.129,-0.584 -3.625,-1.207 -6.777,-1.207 -8.336,0 -13.397,5.258 -13.397,13.242 0,8.645 5.996,13.864 14.022,13.864 3.151,0 5.414,-0.663 6.383,-1.168 L -0.82,20.914 c -1.248,0.544 -2.961,1.011 -5.139,1.011 -5.34,0 -9.195,-3.347 -9.195,-9.657 0,-5.764 3.392,-9.463 9.158,-9.463 1.942,0 3.973,0.39 5.213,0.974"
         style="fill:#4e84c4;fill-opacity:1;fill-rule:nonzero;stroke:none"
         transform="matrix(0.35277776,0,0,-0.35277776,138.14002,156.04227)"
         clip-path="url(#clipPath16)" />
      <path
         id="path17"
         d="M 0,0 -2.262,-7.439 H -7.207 L 1.204,18.808 H 7.319 L 15.848,-7.439 H 10.709 L 8.331,0 M 7.514,3.619 5.45,10.085 C 4.941,11.681 4.513,13.473 4.124,14.991 H 4.045 C 3.654,13.473 3.272,11.645 2.801,10.085 L 0.777,3.619 Z"
         style="fill:#4e84c4;fill-opacity:1;fill-rule:nonzero;stroke:none"
         transform="matrix(0.35277776,0,0,-0.35277776,141.53343,153.69203)"
         clip-path="url(#clipPath18)" />
      <path
         id="path19"
         d="M 0,0 H -7.479 V 4.01 H 12.346 V 0 H 4.793 V -22.236 H 0"
         style="fill:#4e84c4;fill-opacity:1;fill-rule:nonzero;stroke:none"
         transform="matrix(0.35277776,0,0,-0.35277776,149.0744,148.47219)"
         clip-path="url(#clipPath20)" />
      <path
         id="path21"
         d="m 541.764,286.877 h 4.789 v 26.247 h -4.789 z"
         style="fill:#4e84c4;fill-opacity:1;fill-rule:nonzero;stroke:none"
         transform="matrix(0.35277776,0,0,-0.35277776,-36.606932,257.52032)"
         clip-path="url(#clipPath22)" />
      <path
         id="path23"
         d="m 0,0 c 0,-8.803 -5.337,-13.825 -12.582,-13.825 -7.4,0 -12.068,5.649 -12.068,13.359 0,8.06 5.058,13.747 12.46,13.747 C -4.52,13.281 0,7.476 0,0 m -19.592,-0.39 c 0,-5.335 2.686,-9.62 7.284,-9.62 4.633,0 7.243,4.326 7.243,9.816 0,4.943 -2.452,9.658 -7.243,9.658 -4.753,0 -7.284,-4.441 -7.284,-9.854"
         style="fill:#4e84c4;fill-opacity:1;fill-rule:nonzero;stroke:none"
         transform="matrix(0.35277776,0,0,-0.35277776,166.35709,151.59103)"
         clip-path="url(#clipPath24)" />
      <path
         id="path25"
         d="m 0,0 v 26.247 h 5.454 l 6.777,-11.254 c 1.752,-2.921 3.272,-5.96 4.479,-8.804 h 0.079 c -0.312,3.508 -0.43,6.896 -0.43,10.908 v 9.15 h 4.443 V 0 H 15.851 L 9,11.564 C 7.326,14.408 5.569,17.641 4.286,20.6 L 4.168,20.562 C 4.366,17.173 4.405,13.707 4.405,9.385 V 0"
         style="fill:#4e84c4;fill-opacity:1;fill-rule:nonzero;stroke:none"
         transform="matrix(0.35277776,0,0,-0.35277776,167.8116,156.31648)"
         clip-path="url(#clipPath26)" />
      <path
         id="path27"
         d="m 0,0 c 1.558,-0.9 3.895,-1.676 6.35,-1.676 3.079,0 4.794,1.44 4.794,3.584 0,1.987 -1.329,3.152 -4.678,4.362 -4.323,1.556 -7.087,3.853 -7.087,7.632 0,4.282 3.583,7.555 9.269,7.555 2.843,0 4.943,-0.622 6.306,-1.323 l -1.165,-3.856 c -0.932,0.505 -2.767,1.246 -5.221,1.246 -3.035,0 -4.36,-1.636 -4.36,-3.155 0,-2.026 1.519,-2.959 5.026,-4.323 4.555,-1.714 6.777,-4.012 6.777,-7.79 0,-4.203 -3.198,-7.904 -9.972,-7.904 -2.765,0 -5.645,0.816 -7.089,1.673"
         style="fill:#4e84c4;fill-opacity:1;fill-rule:nonzero;stroke:none"
         transform="matrix(0.35277776,0,0,-0.35277776,177.0572,154.47544)"
         clip-path="url(#clipPath28)" />
      <path
         id="path29"
         d="m 0,0 v 18.585 h -7.492 v 7.73 h 25.486 v -7.73 H 10.727 V 0"
         style="fill:#4e84c4;fill-opacity:1;fill-rule:nonzero;stroke:none"
         transform="matrix(0.35277776,0,0,-0.35277776,28.945988,156.27793)"
         clip-path="url(#clipPath30)" />
      <path
         id="path31"
         d="m 0,0 v 18.585 h -7.488 v 7.73 h 25.485 v -7.73 h -7.27 V 0"
         style="fill:#4e84c4;fill-opacity:1;fill-rule:nonzero;stroke:none"
         transform="matrix(0.35277776,0,0,-0.35277776,46.885124,156.27793)"
         clip-path="url(#clipPath32)" />
      <path
         id="path33"
         d="M 0,0 9.64,26.315 20.609,26.319 30.844,0 H 20.51 L 15.183,15.91 9.879,0"
         style="fill:#4e84c4;fill-opacity:1;fill-rule:nonzero;stroke:none"
         transform="matrix(0.35277776,0,0,-0.35277776,34.434891,156.28964)"
         clip-path="url(#clipPath34)" />
      <path
         id="path35"
         d="M 0,0 9.634,26.313 H 20.488 L 30.843,0 H 20.506 L 15.302,15.904 9.874,0"
         style="fill:#4e84c4;fill-opacity:1;fill-rule:nonzero;stroke:none"
         transform="matrix(0.35277776,0,0,-0.35277776,52.366973,156.28756)"
         clip-path="url(#clipPath36)" />
    </g>
  </g>
  <metadata
     id="metadata1">
    <rdf:RDF>
      <cc:Work
         rdf:about="">
        <cc:license
           rdf:resource="m" />
      </cc:Work>
    </rdf:RDF>
  </metadata>
</svg>
